solid OpenSCAD_Model
  facet normal -1 0 0
    outer loop
      vertex 0 5 -2
      vertex 0 4 -2
      vertex 0 5 -1
    endloop
  endfacet
  facet normal -1 0 0
    outer loop
      vertex 0 6 -1
      vertex 0 5.9 -0.9
      vertex 0 6 0
    endloop
  endfacet
  facet normal -1 0 0
    outer loop
      vertex 0 6 -1
      vertex 0 5.1 -0.9
      vertex 0 5.9 -0.9
    endloop
  endfacet
  facet normal -1 -0 0
    outer loop
      vertex 0 5.1 -0.9
      vertex 0 5 -1
      vertex 0 5.1 0
    endloop
  endfacet
  facet normal -1 0 0
    outer loop
      vertex 0 5 -1
      vertex 0 5.1 -0.9
      vertex 0 6 -1
    endloop
  endfacet
  facet normal -1 0 0
    outer loop
      vertex 0 9.5 -4
      vertex 0 8 -4
      vertex 0 9.5 0
    endloop
  endfacet
  facet normal -1 0 0
    outer loop
      vertex 0 9.5 0
      vertex 0 15 1
      vertex 0 15 0
    endloop
  endfacet
  facet normal -1 0 0
    outer loop
      vertex 0 8 0
      vertex 0 9.5 0
      vertex 0 8 -4
    endloop
  endfacet
  facet normal -1 0 0
    outer loop
      vertex 0 8 0
      vertex 0 15 1
      vertex 0 9.5 0
    endloop
  endfacet
  facet normal -1 0 0
    outer loop
      vertex 0 0 1
      vertex 0 8 0
      vertex 0 6 0
    endloop
  endfacet
  facet normal -1 0 0
    outer loop
      vertex 0 5.9 0
      vertex 0 6 0
      vertex 0 5.9 -0.9
    endloop
  endfacet
  facet normal -1 0 0
    outer loop
      vertex 0 0 1
      vertex 0 6 0
      vertex 0 5.9 0
    endloop
  endfacet
  facet normal -1 0 0
    outer loop
      vertex 0 0 1
      vertex 0 5.9 0
      vertex 0 5.1 0
    endloop
  endfacet
  facet normal -1 0 0
    outer loop
      vertex 0 4 -1
      vertex 0 5 -1
      vertex 0 4 -2
    endloop
  endfacet
  facet normal -1 0 0
    outer loop
      vertex 0 5 -1
      vertex 0 4 -1
      vertex 0 5.1 0
    endloop
  endfacet
  facet normal -1 0 0
    outer loop
      vertex 0 0 1
      vertex 0 4 -1
      vertex 0 0 -1
    endloop
  endfacet
  facet normal -1 0 0
    outer loop
      vertex 0 8 0
      vertex 0 0 1
      vertex 0 15 1
    endloop
  endfacet
  facet normal -1 0 0
    outer loop
      vertex 0 4 -1
      vertex 0 0 1
      vertex 0 5.1 0
    endloop
  endfacet
  facet normal -0 0 1
    outer loop
      vertex 0 15 1
      vertex 1 0 1
      vertex 1 15 1
    endloop
  endfacet
  facet normal 0 0 1
    outer loop
      vertex 1 0 1
      vertex 0 15 1
      vertex 0 0 1
    endloop
  endfacet
  facet normal 1 0 0
    outer loop
      vertex 1 15 1
      vertex 1 9.5 0
      vertex 1 15 0
    endloop
  endfacet
  facet normal 1 0 0
    outer loop
      vertex 1 9.5 0
      vertex 1 8 0
      vertex 1 9.5 -4
    endloop
  endfacet
  facet normal 1 0 0
    outer loop
      vertex 1 15 1
      vertex 1 8 0
      vertex 1 9.5 0
    endloop
  endfacet
  facet normal 1 -0 0
    outer loop
      vertex 1 0 1
      vertex 1 8 0
      vertex 1 15 1
    endloop
  endfacet
  facet normal 1 0 0
    outer loop
      vertex 1 5.9 -0.9
      vertex 1 6 0
      vertex 1 5.9 0
    endloop
  endfacet
  facet normal 1 0 0
    outer loop
      vertex 1 8 0
      vertex 1 0 1
      vertex 1 6 0
    endloop
  endfacet
  facet normal 1 0 0
    outer loop
      vertex 1 6 0
      vertex 1 0 1
      vertex 1 5.9 0
    endloop
  endfacet
  facet normal 1 0 0
    outer loop
      vertex 1 5.1 0
      vertex 1 5 -1
      vertex 1 5.1 -0.9
    endloop
  endfacet
  facet normal 1 0 0
    outer loop
      vertex 1 5 -1
      vertex 1 4 -1
      vertex 1 5 -2
    endloop
  endfacet
  facet normal 1 0 0
    outer loop
      vertex 1 5.1 0
      vertex 1 4 -1
      vertex 1 5 -1
    endloop
  endfacet
  facet normal 1 0 0
    outer loop
      vertex 1 5.9 0
      vertex 1 0 1
      vertex 1 5.1 0
    endloop
  endfacet
  facet normal 1 0 0
    outer loop
      vertex 1 0 1
      vertex 1 4 -1
      vertex 1 5.1 0
    endloop
  endfacet
  facet normal 1 0 0
    outer loop
      vertex 1 4 -1
      vertex 1 0 1
      vertex 1 0 -1
    endloop
  endfacet
  facet normal 1 0 0
    outer loop
      vertex 1 9.5 -4
      vertex 1 8 0
      vertex 1 8 -4
    endloop
  endfacet
  facet normal 1 0 0
    outer loop
      vertex 1 6 0
      vertex 1 5.9 -0.9
      vertex 1 6 -1
    endloop
  endfacet
  facet normal 1 -0 0
    outer loop
      vertex 1 5.1 -0.9
      vertex 1 6 -1
      vertex 1 5.9 -0.9
    endloop
  endfacet
  facet normal 1 0 0
    outer loop
      vertex 1 6 -1
      vertex 1 5.1 -0.9
      vertex 1 5 -1
    endloop
  endfacet
  facet normal 1 0 0
    outer loop
      vertex 1 5 -2
      vertex 1 4 -1
      vertex 1 4 -2
    endloop
  endfacet
  facet normal 0 1 -0
    outer loop
      vertex 1 6 -1
      vertex 0 6 0
      vertex 1 6 0
    endloop
  endfacet
  facet normal 0 1 0
    outer loop
      vertex 0 6 0
      vertex 1 6 -1
      vertex 0 6 -1
    endloop
  endfacet
  facet normal 0 0 -1
    outer loop
      vertex 0 5 -1
      vertex 1 6 -1
      vertex 1 5 -1
    endloop
  endfacet
  facet normal -0 0 -1
    outer loop
      vertex 1 6 -1
      vertex 0 5 -1
      vertex 0 6 -1
    endloop
  endfacet
  facet normal 0 1 -0
    outer loop
      vertex 1 5 -2
      vertex 0 5 -1
      vertex 1 5 -1
    endloop
  endfacet
  facet normal 0 1 0
    outer loop
      vertex 0 5 -1
      vertex 1 5 -2
      vertex 0 5 -2
    endloop
  endfacet
  facet normal 0 0 -1
    outer loop
      vertex 0 5.1 0
      vertex 1 5.9 0
      vertex 1 5.1 0
    endloop
  endfacet
  facet normal -0 0 -1
    outer loop
      vertex 1 5.9 0
      vertex 0 5.1 0
      vertex 0 5.9 0
    endloop
  endfacet
  facet normal 0 0 -1
    outer loop
      vertex 0 9.5 0
      vertex 1 15 0
      vertex 1 9.5 0
    endloop
  endfacet
  facet normal -0 0 -1
    outer loop
      vertex 1 15 0
      vertex 0 9.5 0
      vertex 0 15 0
    endloop
  endfacet
  facet normal 0 0 -1
    outer loop
      vertex 0 6 0
      vertex 1 8 0
      vertex 1 6 0
    endloop
  endfacet
  facet normal -0 0 -1
    outer loop
      vertex 1 8 0
      vertex 0 6 0
      vertex 0 8 0
    endloop
  endfacet
  facet normal -0 0 1
    outer loop
      vertex 0 5.9 -0.9
      vertex 1 5.1 -0.9
      vertex 1 5.9 -0.9
    endloop
  endfacet
  facet normal 0 0 1
    outer loop
      vertex 1 5.1 -0.9
      vertex 0 5.9 -0.9
      vertex 0 5.1 -0.9
    endloop
  endfacet
  facet normal 0 1 -0
    outer loop
      vertex 1 5.1 -0.9
      vertex 0 5.1 0
      vertex 1 5.1 0
    endloop
  endfacet
  facet normal 0 1 0
    outer loop
      vertex 0 5.1 0
      vertex 1 5.1 -0.9
      vertex 0 5.1 -0.9
    endloop
  endfacet
  facet normal 0 -1 0
    outer loop
      vertex 0 5.9 -0.9
      vertex 1 5.9 0
      vertex 0 5.9 0
    endloop
  endfacet
  facet normal 0 -1 -0
    outer loop
      vertex 1 5.9 0
      vertex 0 5.9 -0.9
      vertex 1 5.9 -0.9
    endloop
  endfacet
  facet normal 0 1 -0
    outer loop
      vertex 1 15 0
      vertex 0 15 1
      vertex 1 15 1
    endloop
  endfacet
  facet normal 0 1 0
    outer loop
      vertex 0 15 1
      vertex 1 15 0
      vertex 0 15 0
    endloop
  endfacet
  facet normal 0 -1 0
    outer loop
      vertex 0 0 -1
      vertex 1 0 1
      vertex 0 0 1
    endloop
  endfacet
  facet normal 0 -1 -0
    outer loop
      vertex 1 0 1
      vertex 0 0 -1
      vertex 1 0 -1
    endloop
  endfacet
  facet normal 0 -1 0
    outer loop
      vertex 0 4 -2
      vertex 1 4 -1
      vertex 0 4 -1
    endloop
  endfacet
  facet normal 0 -1 -0
    outer loop
      vertex 1 4 -1
      vertex 0 4 -2
      vertex 1 4 -2
    endloop
  endfacet
  facet normal 0 0 -1
    outer loop
      vertex 0 0 -1
      vertex 1 4 -1
      vertex 1 0 -1
    endloop
  endfacet
  facet normal -0 0 -1
    outer loop
      vertex 1 4 -1
      vertex 0 0 -1
      vertex 0 4 -1
    endloop
  endfacet
  facet normal 0 0 -1
    outer loop
      vertex 0 4 -2
      vertex 1 5 -2
      vertex 1 4 -2
    endloop
  endfacet
  facet normal -0 0 -1
    outer loop
      vertex 1 5 -2
      vertex 0 4 -2
      vertex 0 5 -2
    endloop
  endfacet
  facet normal 0 0 -1
    outer loop
      vertex 0 8 -4
      vertex 1 9.5 -4
      vertex 1 8 -4
    endloop
  endfacet
  facet normal -0 0 -1
    outer loop
      vertex 1 9.5 -4
      vertex 0 8 -4
      vertex 0 9.5 -4
    endloop
  endfacet
  facet normal 0 -1 0
    outer loop
      vertex 0 8 -4
      vertex 1 8 0
      vertex 0 8 0
    endloop
  endfacet
  facet normal 0 -1 -0
    outer loop
      vertex 1 8 0
      vertex 0 8 -4
      vertex 1 8 -4
    endloop
  endfacet
  facet normal 0 1 -0
    outer loop
      vertex 1 9.5 -4
      vertex 0 9.5 0
      vertex 1 9.5 0
    endloop
  endfacet
  facet normal 0 1 0
    outer loop
      vertex 0 9.5 0
      vertex 1 9.5 -4
      vertex 0 9.5 -4
    endloop
  endfacet
  facet normal 0.978147 -0 0.207916
    outer loop
      vertex 0.956772 5 1.70337
      vertex 1 8 1.5
      vertex 0.956772 8 1.70337
    endloop
  endfacet
  facet normal 0.978147 0 0.207916
    outer loop
      vertex 1 8 1.5
      vertex 0.956772 5 1.70337
      vertex 1 5 1.5
    endloop
  endfacet
  facet normal -1 0 0
    outer loop
      vertex 0.0109253 5 1.39604
      vertex 0.0109253 8 1.60396
      vertex 0.0109253 8 1.39604
    endloop
  endfacet
  facet normal -1 -0 0
    outer loop
      vertex 0.0109253 8 1.60396
      vertex 0.0109253 5 1.39604
      vertex 0.0109253 5 1.60396
    endloop
  endfacet
  facet normal 0.104527 0 0.994522
    outer loop
      vertex 0.447735 8 1.99726
      vertex 0.654508 5 1.97553
      vertex 0.654508 8 1.97553
    endloop
  endfacet
  facet normal 0.104527 0 0.994522
    outer loop
      vertex 0.654508 5 1.97553
      vertex 0.447735 8 1.99726
      vertex 0.447735 5 1.99726
    endloop
  endfacet
  facet normal 0.5 0 -0.866025
    outer loop
      vertex 0.654508 5 1.02447
      vertex 0.834565 8 1.12843
      vertex 0.834565 5 1.12843
    endloop
  endfacet
  facet normal 0.5 0 -0.866025
    outer loop
      vertex 0.834565 8 1.12843
      vertex 0.654508 5 1.02447
      vertex 0.654508 8 1.02447
    endloop
  endfacet
  facet normal 0.104527 0 -0.994522
    outer loop
      vertex 0.447735 5 1.00274
      vertex 0.654508 8 1.02447
      vertex 0.654508 5 1.02447
    endloop
  endfacet
  facet normal 0.104527 0 -0.994522
    outer loop
      vertex 0.654508 8 1.02447
      vertex 0.447735 5 1.00274
      vertex 0.447735 8 1.00274
    endloop
  endfacet
  facet normal -0.66913 0 0.743145
    outer loop
      vertex 0.0954914 8 1.79389
      vertex 0.25 5 1.93301
      vertex 0.25 8 1.93301
    endloop
  endfacet
  facet normal -0.66913 0 0.743145
    outer loop
      vertex 0.25 5 1.93301
      vertex 0.0954914 8 1.79389
      vertex 0.0954914 5 1.79389
    endloop
  endfacet
  facet normal 0.809017 0 -0.587785
    outer loop
      vertex 0.956772 5 1.29663
      vertex 0.834565 8 1.12843
      vertex 0.956772 8 1.29663
    endloop
  endfacet
  facet normal 0.809017 0 -0.587785
    outer loop
      vertex 0.834565 8 1.12843
      vertex 0.956772 5 1.29663
      vertex 0.834565 5 1.12843
    endloop
  endfacet
  facet normal -0.309016 0 -0.951057
    outer loop
      vertex 0.249999 5 1.06699
      vertex 0.447735 8 1.00274
      vertex 0.447735 5 1.00274
    endloop
  endfacet
  facet normal -0.309016 0 -0.951057
    outer loop
      vertex 0.447735 8 1.00274
      vertex 0.249999 5 1.06699
      vertex 0.249999 8 1.06699
    endloop
  endfacet
  facet normal 0 1 0
    outer loop
      vertex 0.654508 8 1.97553
      vertex 0.25 8 1.93301
      vertex 0.447735 8 1.99726
    endloop
  endfacet
  facet normal 0 1 0
    outer loop
      vertex 0.834565 8 1.87157
      vertex 0.25 8 1.93301
      vertex 0.654508 8 1.97553
    endloop
  endfacet
  facet normal 0 1 0
    outer loop
      vertex 0.834565 8 1.87157
      vertex 0.0954914 8 1.79389
      vertex 0.25 8 1.93301
    endloop
  endfacet
  facet normal 0 1 0
    outer loop
      vertex 0.956772 8 1.70337
      vertex 0.0954914 8 1.79389
      vertex 0.834565 8 1.87157
    endloop
  endfacet
  facet normal 0 1 0
    outer loop
      vertex 0.956772 8 1.70337
      vertex 0.0109253 8 1.60396
      vertex 0.0954914 8 1.79389
    endloop
  endfacet
  facet normal 0 1 0
    outer loop
      vertex 1 8 1.5
      vertex 0.0109253 8 1.60396
      vertex 0.956772 8 1.70337
    endloop
  endfacet
  facet normal 0 1 0
    outer loop
      vertex 1 8 1.5
      vertex 0.0109253 8 1.39604
      vertex 0.0109253 8 1.60396
    endloop
  endfacet
  facet normal 0 1 -0
    outer loop
      vertex 0.956772 8 1.29663
      vertex 0.0109253 8 1.39604
      vertex 1 8 1.5
    endloop
  endfacet
  facet normal 0 1 0
    outer loop
      vertex 0.956772 8 1.29663
      vertex 0.0954914 8 1.20611
      vertex 0.0109253 8 1.39604
    endloop
  endfacet
  facet normal 0 1 -0
    outer loop
      vertex 0.834565 8 1.12843
      vertex 0.0954914 8 1.20611
      vertex 0.956772 8 1.29663
    endloop
  endfacet
  facet normal 0 1 0
    outer loop
      vertex 0.834565 8 1.12843
      vertex 0.249999 8 1.06699
      vertex 0.0954914 8 1.20611
    endloop
  endfacet
  facet normal 0 1 -0
    outer loop
      vertex 0.654508 8 1.02447
      vertex 0.249999 8 1.06699
      vertex 0.834565 8 1.12843
    endloop
  endfacet
  facet normal 0 1 0
    outer loop
      vertex 0.249999 8 1.06699
      vertex 0.654508 8 1.02447
      vertex 0.447735 8 1.00274
    endloop
  endfacet
  facet normal 0.809017 -0 0.587785
    outer loop
      vertex 0.834565 5 1.87157
      vertex 0.956772 8 1.70337
      vertex 0.834565 8 1.87157
    endloop
  endfacet
  facet normal 0.809017 0 0.587785
    outer loop
      vertex 0.956772 8 1.70337
      vertex 0.834565 5 1.87157
      vertex 0.956772 5 1.70337
    endloop
  endfacet
  facet normal 0.5 0 0.866025
    outer loop
      vertex 0.654508 8 1.97553
      vertex 0.834565 5 1.87157
      vertex 0.834565 8 1.87157
    endloop
  endfacet
  facet normal 0.5 0 0.866025
    outer loop
      vertex 0.834565 5 1.87157
      vertex 0.654508 8 1.97553
      vertex 0.654508 5 1.97553
    endloop
  endfacet
  facet normal 0 -1 0
    outer loop
      vertex 0.25 5 1.93301
      vertex 0.654508 5 1.97553
      vertex 0.447735 5 1.99726
    endloop
  endfacet
  facet normal 0 -1 0
    outer loop
      vertex 0.25 5 1.93301
      vertex 0.834565 5 1.87157
      vertex 0.654508 5 1.97553
    endloop
  endfacet
  facet normal 0 -1 0
    outer loop
      vertex 0.0954914 5 1.79389
      vertex 0.834565 5 1.87157
      vertex 0.25 5 1.93301
    endloop
  endfacet
  facet normal 0 -1 0
    outer loop
      vertex 0.0954914 5 1.79389
      vertex 0.956772 5 1.70337
      vertex 0.834565 5 1.87157
    endloop
  endfacet
  facet normal 0 -1 0
    outer loop
      vertex 0.0109253 5 1.60396
      vertex 0.956772 5 1.70337
      vertex 0.0954914 5 1.79389
    endloop
  endfacet
  facet normal 0 -1 0
    outer loop
      vertex 0.0109253 5 1.60396
      vertex 1 5 1.5
      vertex 0.956772 5 1.70337
    endloop
  endfacet
  facet normal 0 -1 0
    outer loop
      vertex 0.0109253 5 1.39604
      vertex 1 5 1.5
      vertex 0.0109253 5 1.60396
    endloop
  endfacet
  facet normal 0 -1 0
    outer loop
      vertex 0.0109253 5 1.39604
      vertex 0.956772 5 1.29663
      vertex 1 5 1.5
    endloop
  endfacet
  facet normal 0 -1 0
    outer loop
      vertex 0.0954914 5 1.20611
      vertex 0.956772 5 1.29663
      vertex 0.0109253 5 1.39604
    endloop
  endfacet
  facet normal 0 -1 0
    outer loop
      vertex 0.0954914 5 1.20611
      vertex 0.834565 5 1.12843
      vertex 0.956772 5 1.29663
    endloop
  endfacet
  facet normal 0 -1 0
    outer loop
      vertex 0.249999 5 1.06699
      vertex 0.834565 5 1.12843
      vertex 0.0954914 5 1.20611
    endloop
  endfacet
  facet normal 0 -1 0
    outer loop
      vertex 0.249999 5 1.06699
      vertex 0.654508 5 1.02447
      vertex 0.834565 5 1.12843
    endloop
  endfacet
  facet normal -0 -1 0
    outer loop
      vertex 0.654508 5 1.02447
      vertex 0.249999 5 1.06699
      vertex 0.447735 5 1.00274
    endloop
  endfacet
  facet normal -0.913544 0 0.40674
    outer loop
      vertex 0.0109253 5 1.60396
      vertex 0.0954914 8 1.79389
      vertex 0.0109253 8 1.60396
    endloop
  endfacet
  facet normal -0.913544 0 0.40674
    outer loop
      vertex 0.0954914 8 1.79389
      vertex 0.0109253 5 1.60396
      vertex 0.0954914 5 1.79389
    endloop
  endfacet
  facet normal -0.309018 0 0.951056
    outer loop
      vertex 0.25 8 1.93301
      vertex 0.447735 5 1.99726
      vertex 0.447735 8 1.99726
    endloop
  endfacet
  facet normal -0.309018 0 0.951056
    outer loop
      vertex 0.447735 5 1.99726
      vertex 0.25 8 1.93301
      vertex 0.25 5 1.93301
    endloop
  endfacet
  facet normal 0.978147 0 -0.207915
    outer loop
      vertex 1 5 1.5
      vertex 0.956772 8 1.29663
      vertex 1 8 1.5
    endloop
  endfacet
  facet normal 0.978147 0 -0.207915
    outer loop
      vertex 0.956772 8 1.29663
      vertex 1 5 1.5
      vertex 0.956772 5 1.29663
    endloop
  endfacet
  facet normal -0.913544 0 -0.40674
    outer loop
      vertex 0.0954914 5 1.20611
      vertex 0.0109253 8 1.39604
      vertex 0.0954914 8 1.20611
    endloop
  endfacet
  facet normal -0.913544 -0 -0.40674
    outer loop
      vertex 0.0109253 8 1.39604
      vertex 0.0954914 5 1.20611
      vertex 0.0109253 5 1.39604
    endloop
  endfacet
  facet normal -0.669133 0 -0.743143
    outer loop
      vertex 0.0954914 5 1.20611
      vertex 0.249999 8 1.06699
      vertex 0.249999 5 1.06699
    endloop
  endfacet
  facet normal -0.669133 0 -0.743143
    outer loop
      vertex 0.249999 8 1.06699
      vertex 0.0954914 5 1.20611
      vertex 0.0954914 8 1.20611
    endloop
  endfacet
endsolid OpenSCAD_Model
