solid OpenSCAD_Model
  facet normal -1 0 0
    outer loop
      vertex 0 0 0
      vertex 0 25 3
      vertex 0 25 0
    endloop
  endfacet
  facet normal -1 -0 0
    outer loop
      vertex 0 25 3
      vertex 0 0 0
      vertex 0 0 3
    endloop
  endfacet
  facet normal -0 0 1
    outer loop
      vertex 0 25 3
      vertex 3 0 3
      vertex 3 25 3
    endloop
  endfacet
  facet normal 0 0 1
    outer loop
      vertex 3 0 3
      vertex 0 25 3
      vertex 0 0 3
    endloop
  endfacet
  facet normal 1 -0 0
    outer loop
      vertex 3 0 3
      vertex 3 25 0
      vertex 3 25 3
    endloop
  endfacet
  facet normal 1 0 0
    outer loop
      vertex 3 25 0
      vertex 3 0 3
      vertex 3 0 0
    endloop
  endfacet
  facet normal 0 0 -1
    outer loop
      vertex 1 12 0
      vertex 2 15 0
      vertex 2 12 0
    endloop
  endfacet
  facet normal -0 0 -1
    outer loop
      vertex 2 15 0
      vertex 1 12 0
      vertex 1 15 0
    endloop
  endfacet
  facet normal 0 0 -1
    outer loop
      vertex 2 12 0
      vertex 3 0 0
      vertex 2 10 0
    endloop
  endfacet
  facet normal 0 0 -1
    outer loop
      vertex 3 0 0
      vertex 1 10 0
      vertex 2 10 0
    endloop
  endfacet
  facet normal 0 0 -1
    outer loop
      vertex 0 0 0
      vertex 1 12 0
      vertex 1 10 0
    endloop
  endfacet
  facet normal 0 0 -1
    outer loop
      vertex 1 12 0
      vertex 0 25 0
      vertex 1 15 0
    endloop
  endfacet
  facet normal -0 0 -1
    outer loop
      vertex 1 12 0
      vertex 0 0 0
      vertex 0 25 0
    endloop
  endfacet
  facet normal 0 0 -1
    outer loop
      vertex 0 0 0
      vertex 1 10 0
      vertex 3 0 0
    endloop
  endfacet
  facet normal 0 0 -1
    outer loop
      vertex 3 0 0
      vertex 2 12 0
      vertex 3 25 0
    endloop
  endfacet
  facet normal 0 0 -1
    outer loop
      vertex 2 15 0
      vertex 3 25 0
      vertex 2 12 0
    endloop
  endfacet
  facet normal 0 0 -1
    outer loop
      vertex 2 16 0
      vertex 3 25 0
      vertex 2 15 0
    endloop
  endfacet
  facet normal 0 0 -1
    outer loop
      vertex 1 16 0
      vertex 3 25 0
      vertex 2 16 0
    endloop
  endfacet
  facet normal 0 0 -1
    outer loop
      vertex 1 16 0
      vertex 0 25 0
      vertex 3 25 0
    endloop
  endfacet
  facet normal 0 0 -1
    outer loop
      vertex 1 15 0
      vertex 0 25 0
      vertex 1 16 0
    endloop
  endfacet
  facet normal 0 -1 0
    outer loop
      vertex 0 0 0
      vertex 3 0 3
      vertex 0 0 3
    endloop
  endfacet
  facet normal 0 -1 -0
    outer loop
      vertex 3 0 3
      vertex 0 0 0
      vertex 3 0 0
    endloop
  endfacet
  facet normal 0 1 -0
    outer loop
      vertex 3 25 0
      vertex 0 25 3
      vertex 3 25 3
    endloop
  endfacet
  facet normal 0 1 0
    outer loop
      vertex 0 25 3
      vertex 3 25 0
      vertex 0 25 0
    endloop
  endfacet
  facet normal -1 0 0
    outer loop
      vertex 1 10 -3
      vertex 1 12 0
      vertex 1 12 -3
    endloop
  endfacet
  facet normal -1 -0 0
    outer loop
      vertex 1 12 0
      vertex 1 10 -3
      vertex 1 10 0
    endloop
  endfacet
  facet normal 1 -0 0
    outer loop
      vertex 2 10 0
      vertex 2 12 -3
      vertex 2 12 0
    endloop
  endfacet
  facet normal 1 0 0
    outer loop
      vertex 2 12 -3
      vertex 2 10 0
      vertex 2 10 -3
    endloop
  endfacet
  facet normal 0 1 -0
    outer loop
      vertex 2 12 -3
      vertex 1 12 0
      vertex 2 12 0
    endloop
  endfacet
  facet normal 0 1 0
    outer loop
      vertex 1 12 0
      vertex 2 12 -3
      vertex 1 12 -3
    endloop
  endfacet
  facet normal 0 0 -1
    outer loop
      vertex 1 10 -3
      vertex 2 12 -3
      vertex 2 10 -3
    endloop
  endfacet
  facet normal -0 0 -1
    outer loop
      vertex 2 12 -3
      vertex 1 10 -3
      vertex 1 12 -3
    endloop
  endfacet
  facet normal 0 -1 0
    outer loop
      vertex 1 10 -3
      vertex 2 10 0
      vertex 1 10 0
    endloop
  endfacet
  facet normal 0 -1 -0
    outer loop
      vertex 2 10 0
      vertex 1 10 -3
      vertex 2 10 -3
    endloop
  endfacet
  facet normal -1 0 0
    outer loop
      vertex 1 15 -3
      vertex 1 16 0
      vertex 1 16 -3
    endloop
  endfacet
  facet normal -1 -0 0
    outer loop
      vertex 1 16 0
      vertex 1 15 -3
      vertex 1 15 0
    endloop
  endfacet
  facet normal 1 -0 0
    outer loop
      vertex 2 15 0
      vertex 2 16 -3
      vertex 2 16 0
    endloop
  endfacet
  facet normal 1 0 0
    outer loop
      vertex 2 16 -3
      vertex 2 15 0
      vertex 2 15 -3
    endloop
  endfacet
  facet normal 0 0 -1
    outer loop
      vertex 1 15 -3
      vertex 2 16 -3
      vertex 2 15 -3
    endloop
  endfacet
  facet normal -0 0 -1
    outer loop
      vertex 2 16 -3
      vertex 1 15 -3
      vertex 1 16 -3
    endloop
  endfacet
  facet normal 0 -1 0
    outer loop
      vertex 1 15 -3
      vertex 2 15 0
      vertex 1 15 0
    endloop
  endfacet
  facet normal 0 -1 -0
    outer loop
      vertex 2 15 0
      vertex 1 15 -3
      vertex 2 15 -3
    endloop
  endfacet
  facet normal 0 1 -0
    outer loop
      vertex 2 16 -3
      vertex 1 16 0
      vertex 2 16 0
    endloop
  endfacet
  facet normal 0 1 0
    outer loop
      vertex 1 16 0
      vertex 2 16 -3
      vertex 1 16 -3
    endloop
  endfacet
endsolid OpenSCAD_Model
