solid OpenSCAD_Model
  facet normal 0.308648 0.048885 0.949919
    outer loop
      vertex 0.680986 0 1.33651
      vertex 0.647656 0.210436 1.33651
      vertex 0.234652 0 1.48153
    endloop
  endfacet
  facet normal 0.308648 0.048885 0.949919
    outer loop
      vertex 0.647656 0.210436 1.33651
      vertex 0.223167 0.0725114 1.48153
      vertex 0.234652 0 1.48153
    endloop
  endfacet
  facet normal 0.278435 0.14187 0.949919
    outer loop
      vertex 0.647656 0.210436 1.33651
      vertex 0.550929 0.400273 1.33651
      vertex 0.223167 0.0725114 1.48153
    endloop
  endfacet
  facet normal 0.278435 0.14187 0.949919
    outer loop
      vertex 0.550929 0.400273 1.33651
      vertex 0.189837 0.137925 1.48153
      vertex 0.223167 0.0725114 1.48153
    endloop
  endfacet
  facet normal 0.220967 0.220967 0.949919
    outer loop
      vertex 0.550929 0.400273 1.33651
      vertex 0.400273 0.550929 1.33651
      vertex 0.189837 0.137925 1.48153
    endloop
  endfacet
  facet normal 0.220967 0.220967 0.949919
    outer loop
      vertex 0.400273 0.550929 1.33651
      vertex 0.137925 0.189837 1.48153
      vertex 0.189837 0.137925 1.48153
    endloop
  endfacet
  facet normal 0.14187 0.278435 0.949919
    outer loop
      vertex 0.400273 0.550929 1.33651
      vertex 0.210436 0.647656 1.33651
      vertex 0.137925 0.189837 1.48153
    endloop
  endfacet
  facet normal 0.14187 0.278435 0.949919
    outer loop
      vertex 0.210436 0.647656 1.33651
      vertex 0.0725114 0.223167 1.48153
      vertex 0.137925 0.189837 1.48153
    endloop
  endfacet
  facet normal 0.048885 0.308648 0.949919
    outer loop
      vertex 0.210436 0.647656 1.33651
      vertex 4.1697e-017 0.680986 1.33651
      vertex 0.0725114 0.223167 1.48153
    endloop
  endfacet
  facet normal 0.048885 0.308648 0.949919
    outer loop
      vertex 4.1697e-017 0.680986 1.33651
      vertex 1.43678e-017 0.234652 1.48153
      vertex 0.0725114 0.223167 1.48153
    endloop
  endfacet
  facet normal -0.048885 0.308648 0.949919
    outer loop
      vertex 4.1697e-017 0.680986 1.33651
      vertex -0.210436 0.647656 1.33651
      vertex 1.43678e-017 0.234652 1.48153
    endloop
  endfacet
  facet normal -0.048885 0.308648 0.949919
    outer loop
      vertex -0.210436 0.647656 1.33651
      vertex -0.0725114 0.223167 1.48153
      vertex 1.43678e-017 0.234652 1.48153
    endloop
  endfacet
  facet normal -0.14187 0.278435 0.949919
    outer loop
      vertex -0.210436 0.647656 1.33651
      vertex -0.400273 0.550929 1.33651
      vertex -0.0725114 0.223167 1.48153
    endloop
  endfacet
  facet normal -0.14187 0.278435 0.949919
    outer loop
      vertex -0.400273 0.550929 1.33651
      vertex -0.137925 0.189837 1.48153
      vertex -0.0725114 0.223167 1.48153
    endloop
  endfacet
  facet normal -0.220967 0.220967 0.949919
    outer loop
      vertex -0.400273 0.550929 1.33651
      vertex -0.550929 0.400273 1.33651
      vertex -0.137925 0.189837 1.48153
    endloop
  endfacet
  facet normal -0.220967 0.220967 0.949919
    outer loop
      vertex -0.550929 0.400273 1.33651
      vertex -0.189837 0.137925 1.48153
      vertex -0.137925 0.189837 1.48153
    endloop
  endfacet
  facet normal -0.278435 0.14187 0.949919
    outer loop
      vertex -0.550929 0.400273 1.33651
      vertex -0.647656 0.210436 1.33651
      vertex -0.189837 0.137925 1.48153
    endloop
  endfacet
  facet normal -0.278435 0.14187 0.949919
    outer loop
      vertex -0.647656 0.210436 1.33651
      vertex -0.223167 0.0725114 1.48153
      vertex -0.189837 0.137925 1.48153
    endloop
  endfacet
  facet normal -0.308648 0.048885 0.949919
    outer loop
      vertex -0.647656 0.210436 1.33651
      vertex -0.680986 8.33939e-017 1.33651
      vertex -0.223167 0.0725114 1.48153
    endloop
  endfacet
  facet normal -0.308648 0.048885 0.949919
    outer loop
      vertex -0.680986 8.33939e-017 1.33651
      vertex -0.234652 2.87356e-017 1.48153
      vertex -0.223167 0.0725114 1.48153
    endloop
  endfacet
  facet normal -0.308648 -0.048885 0.949919
    outer loop
      vertex -0.680986 8.33939e-017 1.33651
      vertex -0.647656 -0.210436 1.33651
      vertex -0.234652 2.87356e-017 1.48153
    endloop
  endfacet
  facet normal -0.308648 -0.048885 0.949919
    outer loop
      vertex -0.647656 -0.210436 1.33651
      vertex -0.223167 -0.0725114 1.48153
      vertex -0.234652 2.87356e-017 1.48153
    endloop
  endfacet
  facet normal -0.278435 -0.14187 0.949919
    outer loop
      vertex -0.647656 -0.210436 1.33651
      vertex -0.550929 -0.400273 1.33651
      vertex -0.223167 -0.0725114 1.48153
    endloop
  endfacet
  facet normal -0.278435 -0.14187 0.949919
    outer loop
      vertex -0.550929 -0.400273 1.33651
      vertex -0.189837 -0.137925 1.48153
      vertex -0.223167 -0.0725114 1.48153
    endloop
  endfacet
  facet normal -0.220967 -0.220967 0.949919
    outer loop
      vertex -0.550929 -0.400273 1.33651
      vertex -0.400273 -0.550929 1.33651
      vertex -0.189837 -0.137925 1.48153
    endloop
  endfacet
  facet normal -0.220967 -0.220967 0.949919
    outer loop
      vertex -0.400273 -0.550929 1.33651
      vertex -0.137925 -0.189837 1.48153
      vertex -0.189837 -0.137925 1.48153
    endloop
  endfacet
  facet normal -0.14187 -0.278435 0.949919
    outer loop
      vertex -0.400273 -0.550929 1.33651
      vertex -0.210436 -0.647656 1.33651
      vertex -0.137925 -0.189837 1.48153
    endloop
  endfacet
  facet normal -0.14187 -0.278435 0.949919
    outer loop
      vertex -0.210436 -0.647656 1.33651
      vertex -0.0725114 -0.223167 1.48153
      vertex -0.137925 -0.189837 1.48153
    endloop
  endfacet
  facet normal -0.048885 -0.308648 0.949919
    outer loop
      vertex -0.210436 -0.647656 1.33651
      vertex -1.25091e-016 -0.680986 1.33651
      vertex -0.0725114 -0.223167 1.48153
    endloop
  endfacet
  facet normal -0.048885 -0.308648 0.949919
    outer loop
      vertex -1.25091e-016 -0.680986 1.33651
      vertex -4.31034e-017 -0.234652 1.48153
      vertex -0.0725114 -0.223167 1.48153
    endloop
  endfacet
  facet normal 0.048885 -0.308648 0.949919
    outer loop
      vertex -1.25091e-016 -0.680986 1.33651
      vertex 0.210436 -0.647656 1.33651
      vertex -4.31034e-017 -0.234652 1.48153
    endloop
  endfacet
  facet normal 0.048885 -0.308648 0.949919
    outer loop
      vertex 0.210436 -0.647656 1.33651
      vertex 0.0725114 -0.223167 1.48153
      vertex -4.31034e-017 -0.234652 1.48153
    endloop
  endfacet
  facet normal 0.14187 -0.278435 0.949919
    outer loop
      vertex 0.210436 -0.647656 1.33651
      vertex 0.400273 -0.550929 1.33651
      vertex 0.0725114 -0.223167 1.48153
    endloop
  endfacet
  facet normal 0.14187 -0.278435 0.949919
    outer loop
      vertex 0.400273 -0.550929 1.33651
      vertex 0.137925 -0.189837 1.48153
      vertex 0.0725114 -0.223167 1.48153
    endloop
  endfacet
  facet normal 0.220967 -0.220967 0.949919
    outer loop
      vertex 0.400273 -0.550929 1.33651
      vertex 0.550929 -0.400273 1.33651
      vertex 0.137925 -0.189837 1.48153
    endloop
  endfacet
  facet normal 0.220967 -0.220967 0.949919
    outer loop
      vertex 0.550929 -0.400273 1.33651
      vertex 0.189837 -0.137925 1.48153
      vertex 0.137925 -0.189837 1.48153
    endloop
  endfacet
  facet normal 0.278435 -0.14187 0.949919
    outer loop
      vertex 0.550929 -0.400273 1.33651
      vertex 0.647656 -0.210436 1.33651
      vertex 0.189837 -0.137925 1.48153
    endloop
  endfacet
  facet normal 0.278435 -0.14187 0.949919
    outer loop
      vertex 0.647656 -0.210436 1.33651
      vertex 0.223167 -0.0725114 1.48153
      vertex 0.189837 -0.137925 1.48153
    endloop
  endfacet
  facet normal 0.308648 -0.048885 0.949919
    outer loop
      vertex 0.647656 -0.210436 1.33651
      vertex 0.680986 0 1.33651
      vertex 0.223167 -0.0725114 1.48153
    endloop
  endfacet
  facet normal 0.308648 -0.048885 0.949919
    outer loop
      vertex 0.680986 0 1.33651
      vertex 0.234652 0 1.48153
      vertex 0.223167 -0.0725114 1.48153
    endloop
  endfacet
  facet normal 0.585255 0.0926952 0.805534
    outer loop
      vertex 1.06066 0 1.06066
      vertex 1.00875 0.327762 1.06066
      vertex 0.680986 0 1.33651
    endloop
  endfacet
  facet normal 0.585255 0.0926952 0.805534
    outer loop
      vertex 1.00875 0.327762 1.06066
      vertex 0.647656 0.210436 1.33651
      vertex 0.680986 0 1.33651
    endloop
  endfacet
  facet normal 0.527966 0.269012 0.805534
    outer loop
      vertex 1.00875 0.327762 1.06066
      vertex 0.858092 0.62344 1.06066
      vertex 0.647656 0.210436 1.33651
    endloop
  endfacet
  facet normal 0.527966 0.269012 0.805534
    outer loop
      vertex 0.858092 0.62344 1.06066
      vertex 0.550929 0.400273 1.33651
      vertex 0.647656 0.210436 1.33651
    endloop
  endfacet
  facet normal 0.418996 0.418996 0.805534
    outer loop
      vertex 0.858092 0.62344 1.06066
      vertex 0.62344 0.858092 1.06066
      vertex 0.550929 0.400273 1.33651
    endloop
  endfacet
  facet normal 0.418996 0.418996 0.805534
    outer loop
      vertex 0.62344 0.858092 1.06066
      vertex 0.400273 0.550929 1.33651
      vertex 0.550929 0.400273 1.33651
    endloop
  endfacet
  facet normal 0.269012 0.527966 0.805534
    outer loop
      vertex 0.62344 0.858092 1.06066
      vertex 0.327762 1.00875 1.06066
      vertex 0.400273 0.550929 1.33651
    endloop
  endfacet
  facet normal 0.269012 0.527966 0.805534
    outer loop
      vertex 0.327762 1.00875 1.06066
      vertex 0.210436 0.647656 1.33651
      vertex 0.400273 0.550929 1.33651
    endloop
  endfacet
  facet normal 0.0926952 0.585255 0.805534
    outer loop
      vertex 0.327762 1.00875 1.06066
      vertex 6.49446e-017 1.06066 1.06066
      vertex 0.210436 0.647656 1.33651
    endloop
  endfacet
  facet normal 0.0926952 0.585255 0.805534
    outer loop
      vertex 6.49446e-017 1.06066 1.06066
      vertex 4.1697e-017 0.680986 1.33651
      vertex 0.210436 0.647656 1.33651
    endloop
  endfacet
  facet normal -0.0926952 0.585255 0.805534
    outer loop
      vertex 6.49446e-017 1.06066 1.06066
      vertex -0.327762 1.00875 1.06066
      vertex 4.1697e-017 0.680986 1.33651
    endloop
  endfacet
  facet normal -0.0926952 0.585255 0.805534
    outer loop
      vertex -0.327762 1.00875 1.06066
      vertex -0.210436 0.647656 1.33651
      vertex 4.1697e-017 0.680986 1.33651
    endloop
  endfacet
  facet normal -0.269012 0.527966 0.805534
    outer loop
      vertex -0.327762 1.00875 1.06066
      vertex -0.62344 0.858092 1.06066
      vertex -0.210436 0.647656 1.33651
    endloop
  endfacet
  facet normal -0.269012 0.527966 0.805534
    outer loop
      vertex -0.62344 0.858092 1.06066
      vertex -0.400273 0.550929 1.33651
      vertex -0.210436 0.647656 1.33651
    endloop
  endfacet
  facet normal -0.418996 0.418996 0.805534
    outer loop
      vertex -0.62344 0.858092 1.06066
      vertex -0.858092 0.62344 1.06066
      vertex -0.400273 0.550929 1.33651
    endloop
  endfacet
  facet normal -0.418996 0.418996 0.805534
    outer loop
      vertex -0.858092 0.62344 1.06066
      vertex -0.550929 0.400273 1.33651
      vertex -0.400273 0.550929 1.33651
    endloop
  endfacet
  facet normal -0.527966 0.269012 0.805534
    outer loop
      vertex -0.858092 0.62344 1.06066
      vertex -1.00875 0.327762 1.06066
      vertex -0.550929 0.400273 1.33651
    endloop
  endfacet
  facet normal -0.527966 0.269012 0.805534
    outer loop
      vertex -1.00875 0.327762 1.06066
      vertex -0.647656 0.210436 1.33651
      vertex -0.550929 0.400273 1.33651
    endloop
  endfacet
  facet normal -0.585255 0.0926952 0.805534
    outer loop
      vertex -1.00875 0.327762 1.06066
      vertex -1.06066 1.29889e-016 1.06066
      vertex -0.647656 0.210436 1.33651
    endloop
  endfacet
  facet normal -0.585255 0.0926952 0.805534
    outer loop
      vertex -1.06066 1.29889e-016 1.06066
      vertex -0.680986 8.33939e-017 1.33651
      vertex -0.647656 0.210436 1.33651
    endloop
  endfacet
  facet normal -0.585255 -0.0926952 0.805534
    outer loop
      vertex -1.06066 1.29889e-016 1.06066
      vertex -1.00875 -0.327762 1.06066
      vertex -0.680986 8.33939e-017 1.33651
    endloop
  endfacet
  facet normal -0.585255 -0.0926952 0.805534
    outer loop
      vertex -1.00875 -0.327762 1.06066
      vertex -0.647656 -0.210436 1.33651
      vertex -0.680986 8.33939e-017 1.33651
    endloop
  endfacet
  facet normal -0.527966 -0.269012 0.805534
    outer loop
      vertex -1.00875 -0.327762 1.06066
      vertex -0.858092 -0.62344 1.06066
      vertex -0.647656 -0.210436 1.33651
    endloop
  endfacet
  facet normal -0.527966 -0.269012 0.805534
    outer loop
      vertex -0.858092 -0.62344 1.06066
      vertex -0.550929 -0.400273 1.33651
      vertex -0.647656 -0.210436 1.33651
    endloop
  endfacet
  facet normal -0.418996 -0.418996 0.805534
    outer loop
      vertex -0.858092 -0.62344 1.06066
      vertex -0.62344 -0.858092 1.06066
      vertex -0.550929 -0.400273 1.33651
    endloop
  endfacet
  facet normal -0.418996 -0.418996 0.805534
    outer loop
      vertex -0.62344 -0.858092 1.06066
      vertex -0.400273 -0.550929 1.33651
      vertex -0.550929 -0.400273 1.33651
    endloop
  endfacet
  facet normal -0.269012 -0.527966 0.805534
    outer loop
      vertex -0.62344 -0.858092 1.06066
      vertex -0.327762 -1.00875 1.06066
      vertex -0.400273 -0.550929 1.33651
    endloop
  endfacet
  facet normal -0.269012 -0.527966 0.805534
    outer loop
      vertex -0.327762 -1.00875 1.06066
      vertex -0.210436 -0.647656 1.33651
      vertex -0.400273 -0.550929 1.33651
    endloop
  endfacet
  facet normal -0.0926952 -0.585255 0.805534
    outer loop
      vertex -0.327762 -1.00875 1.06066
      vertex -1.94834e-016 -1.06066 1.06066
      vertex -0.210436 -0.647656 1.33651
    endloop
  endfacet
  facet normal -0.0926952 -0.585255 0.805534
    outer loop
      vertex -1.94834e-016 -1.06066 1.06066
      vertex -1.25091e-016 -0.680986 1.33651
      vertex -0.210436 -0.647656 1.33651
    endloop
  endfacet
  facet normal 0.0926952 -0.585255 0.805534
    outer loop
      vertex -1.94834e-016 -1.06066 1.06066
      vertex 0.327762 -1.00875 1.06066
      vertex -1.25091e-016 -0.680986 1.33651
    endloop
  endfacet
  facet normal 0.0926952 -0.585255 0.805534
    outer loop
      vertex 0.327762 -1.00875 1.06066
      vertex 0.210436 -0.647656 1.33651
      vertex -1.25091e-016 -0.680986 1.33651
    endloop
  endfacet
  facet normal 0.269012 -0.527966 0.805534
    outer loop
      vertex 0.327762 -1.00875 1.06066
      vertex 0.62344 -0.858092 1.06066
      vertex 0.210436 -0.647656 1.33651
    endloop
  endfacet
  facet normal 0.269012 -0.527966 0.805534
    outer loop
      vertex 0.62344 -0.858092 1.06066
      vertex 0.400273 -0.550929 1.33651
      vertex 0.210436 -0.647656 1.33651
    endloop
  endfacet
  facet normal 0.418996 -0.418996 0.805534
    outer loop
      vertex 0.62344 -0.858092 1.06066
      vertex 0.858092 -0.62344 1.06066
      vertex 0.400273 -0.550929 1.33651
    endloop
  endfacet
  facet normal 0.418996 -0.418996 0.805534
    outer loop
      vertex 0.858092 -0.62344 1.06066
      vertex 0.550929 -0.400273 1.33651
      vertex 0.400273 -0.550929 1.33651
    endloop
  endfacet
  facet normal 0.527966 -0.269012 0.805534
    outer loop
      vertex 0.858092 -0.62344 1.06066
      vertex 1.00875 -0.327762 1.06066
      vertex 0.550929 -0.400273 1.33651
    endloop
  endfacet
  facet normal 0.527966 -0.269012 0.805534
    outer loop
      vertex 1.00875 -0.327762 1.06066
      vertex 0.647656 -0.210436 1.33651
      vertex 0.550929 -0.400273 1.33651
    endloop
  endfacet
  facet normal 0.585255 -0.0926952 0.805534
    outer loop
      vertex 1.00875 -0.327762 1.06066
      vertex 1.06066 0 1.06066
      vertex 0.647656 -0.210436 1.33651
    endloop
  endfacet
  facet normal 0.585255 -0.0926952 0.805534
    outer loop
      vertex 1.06066 0 1.06066
      vertex 0.680986 0 1.33651
      vertex 0.647656 -0.210436 1.33651
    endloop
  endfacet
  facet normal 0.802456 0.127097 0.583019
    outer loop
      vertex 1.33651 0 0.680986
      vertex 1.2711 0.413004 0.680986
      vertex 1.06066 0 1.06066
    endloop
  endfacet
  facet normal 0.802456 0.127097 0.583019
    outer loop
      vertex 1.2711 0.413004 0.680986
      vertex 1.00875 0.327762 1.06066
      vertex 1.06066 0 1.06066
    endloop
  endfacet
  facet normal 0.723906 0.368849 0.583019
    outer loop
      vertex 1.2711 0.413004 0.680986
      vertex 1.08126 0.785581 0.680986
      vertex 1.00875 0.327762 1.06066
    endloop
  endfacet
  facet normal 0.723906 0.368849 0.583019
    outer loop
      vertex 1.08126 0.785581 0.680986
      vertex 0.858092 0.62344 1.06066
      vertex 1.00875 0.327762 1.06066
    endloop
  endfacet
  facet normal 0.574495 0.574495 0.583019
    outer loop
      vertex 1.08126 0.785581 0.680986
      vertex 0.785581 1.08126 0.680986
      vertex 0.858092 0.62344 1.06066
    endloop
  endfacet
  facet normal 0.574495 0.574495 0.583019
    outer loop
      vertex 0.785581 1.08126 0.680986
      vertex 0.62344 0.858092 1.06066
      vertex 0.858092 0.62344 1.06066
    endloop
  endfacet
  facet normal 0.368849 0.723906 0.583019
    outer loop
      vertex 0.785581 1.08126 0.680986
      vertex 0.413004 1.2711 0.680986
      vertex 0.62344 0.858092 1.06066
    endloop
  endfacet
  facet normal 0.368849 0.723906 0.583019
    outer loop
      vertex 0.413004 1.2711 0.680986
      vertex 0.327762 1.00875 1.06066
      vertex 0.62344 0.858092 1.06066
    endloop
  endfacet
  facet normal 0.127097 0.802456 0.583019
    outer loop
      vertex 0.413004 1.2711 0.680986
      vertex 8.18349e-017 1.33651 0.680986
      vertex 0.327762 1.00875 1.06066
    endloop
  endfacet
  facet normal 0.127097 0.802456 0.583019
    outer loop
      vertex 8.18349e-017 1.33651 0.680986
      vertex 6.49446e-017 1.06066 1.06066
      vertex 0.327762 1.00875 1.06066
    endloop
  endfacet
  facet normal -0.127097 0.802456 0.583019
    outer loop
      vertex 8.18349e-017 1.33651 0.680986
      vertex -0.413004 1.2711 0.680986
      vertex 6.49446e-017 1.06066 1.06066
    endloop
  endfacet
  facet normal -0.127097 0.802456 0.583019
    outer loop
      vertex -0.413004 1.2711 0.680986
      vertex -0.327762 1.00875 1.06066
      vertex 6.49446e-017 1.06066 1.06066
    endloop
  endfacet
  facet normal -0.368849 0.723906 0.583019
    outer loop
      vertex -0.413004 1.2711 0.680986
      vertex -0.785581 1.08126 0.680986
      vertex -0.327762 1.00875 1.06066
    endloop
  endfacet
  facet normal -0.368849 0.723906 0.583019
    outer loop
      vertex -0.785581 1.08126 0.680986
      vertex -0.62344 0.858092 1.06066
      vertex -0.327762 1.00875 1.06066
    endloop
  endfacet
  facet normal -0.574495 0.574495 0.583019
    outer loop
      vertex -0.785581 1.08126 0.680986
      vertex -1.08126 0.785581 0.680986
      vertex -0.62344 0.858092 1.06066
    endloop
  endfacet
  facet normal -0.574495 0.574495 0.583019
    outer loop
      vertex -1.08126 0.785581 0.680986
      vertex -0.858092 0.62344 1.06066
      vertex -0.62344 0.858092 1.06066
    endloop
  endfacet
  facet normal -0.723906 0.368849 0.583019
    outer loop
      vertex -1.08126 0.785581 0.680986
      vertex -1.2711 0.413004 0.680986
      vertex -0.858092 0.62344 1.06066
    endloop
  endfacet
  facet normal -0.723906 0.368849 0.583019
    outer loop
      vertex -1.2711 0.413004 0.680986
      vertex -1.00875 0.327762 1.06066
      vertex -0.858092 0.62344 1.06066
    endloop
  endfacet
  facet normal -0.802456 0.127097 0.583019
    outer loop
      vertex -1.2711 0.413004 0.680986
      vertex -1.33651 1.6367e-016 0.680986
      vertex -1.00875 0.327762 1.06066
    endloop
  endfacet
  facet normal -0.802456 0.127097 0.583019
    outer loop
      vertex -1.33651 1.6367e-016 0.680986
      vertex -1.06066 1.29889e-016 1.06066
      vertex -1.00875 0.327762 1.06066
    endloop
  endfacet
  facet normal -0.802456 -0.127097 0.583019
    outer loop
      vertex -1.33651 1.6367e-016 0.680986
      vertex -1.2711 -0.413004 0.680986
      vertex -1.06066 1.29889e-016 1.06066
    endloop
  endfacet
  facet normal -0.802456 -0.127097 0.583019
    outer loop
      vertex -1.2711 -0.413004 0.680986
      vertex -1.00875 -0.327762 1.06066
      vertex -1.06066 1.29889e-016 1.06066
    endloop
  endfacet
  facet normal -0.723906 -0.368849 0.583019
    outer loop
      vertex -1.2711 -0.413004 0.680986
      vertex -1.08126 -0.785581 0.680986
      vertex -1.00875 -0.327762 1.06066
    endloop
  endfacet
  facet normal -0.723906 -0.368849 0.583019
    outer loop
      vertex -1.08126 -0.785581 0.680986
      vertex -0.858092 -0.62344 1.06066
      vertex -1.00875 -0.327762 1.06066
    endloop
  endfacet
  facet normal -0.574495 -0.574495 0.583019
    outer loop
      vertex -1.08126 -0.785581 0.680986
      vertex -0.785581 -1.08126 0.680986
      vertex -0.858092 -0.62344 1.06066
    endloop
  endfacet
  facet normal -0.574495 -0.574495 0.583019
    outer loop
      vertex -0.785581 -1.08126 0.680986
      vertex -0.62344 -0.858092 1.06066
      vertex -0.858092 -0.62344 1.06066
    endloop
  endfacet
  facet normal -0.368849 -0.723906 0.583019
    outer loop
      vertex -0.785581 -1.08126 0.680986
      vertex -0.413004 -1.2711 0.680986
      vertex -0.62344 -0.858092 1.06066
    endloop
  endfacet
  facet normal -0.368849 -0.723906 0.583019
    outer loop
      vertex -0.413004 -1.2711 0.680986
      vertex -0.327762 -1.00875 1.06066
      vertex -0.62344 -0.858092 1.06066
    endloop
  endfacet
  facet normal -0.127097 -0.802456 0.583019
    outer loop
      vertex -0.413004 -1.2711 0.680986
      vertex -2.45505e-016 -1.33651 0.680986
      vertex -0.327762 -1.00875 1.06066
    endloop
  endfacet
  facet normal -0.127097 -0.802456 0.583019
    outer loop
      vertex -2.45505e-016 -1.33651 0.680986
      vertex -1.94834e-016 -1.06066 1.06066
      vertex -0.327762 -1.00875 1.06066
    endloop
  endfacet
  facet normal 0.127097 -0.802456 0.583019
    outer loop
      vertex -2.45505e-016 -1.33651 0.680986
      vertex 0.413004 -1.2711 0.680986
      vertex -1.94834e-016 -1.06066 1.06066
    endloop
  endfacet
  facet normal 0.127097 -0.802456 0.583019
    outer loop
      vertex 0.413004 -1.2711 0.680986
      vertex 0.327762 -1.00875 1.06066
      vertex -1.94834e-016 -1.06066 1.06066
    endloop
  endfacet
  facet normal 0.368849 -0.723906 0.583019
    outer loop
      vertex 0.413004 -1.2711 0.680986
      vertex 0.785581 -1.08126 0.680986
      vertex 0.327762 -1.00875 1.06066
    endloop
  endfacet
  facet normal 0.368849 -0.723906 0.583019
    outer loop
      vertex 0.785581 -1.08126 0.680986
      vertex 0.62344 -0.858092 1.06066
      vertex 0.327762 -1.00875 1.06066
    endloop
  endfacet
  facet normal 0.574495 -0.574495 0.583019
    outer loop
      vertex 0.785581 -1.08126 0.680986
      vertex 1.08126 -0.785581 0.680986
      vertex 0.62344 -0.858092 1.06066
    endloop
  endfacet
  facet normal 0.574495 -0.574495 0.583019
    outer loop
      vertex 1.08126 -0.785581 0.680986
      vertex 0.858092 -0.62344 1.06066
      vertex 0.62344 -0.858092 1.06066
    endloop
  endfacet
  facet normal 0.723906 -0.368849 0.583019
    outer loop
      vertex 1.08126 -0.785581 0.680986
      vertex 1.2711 -0.413004 0.680986
      vertex 0.858092 -0.62344 1.06066
    endloop
  endfacet
  facet normal 0.723906 -0.368849 0.583019
    outer loop
      vertex 1.2711 -0.413004 0.680986
      vertex 1.00875 -0.327762 1.06066
      vertex 0.858092 -0.62344 1.06066
    endloop
  endfacet
  facet normal 0.802456 -0.127097 0.583019
    outer loop
      vertex 1.2711 -0.413004 0.680986
      vertex 1.33651 0 0.680986
      vertex 1.00875 -0.327762 1.06066
    endloop
  endfacet
  facet normal 0.802456 -0.127097 0.583019
    outer loop
      vertex 1.33651 0 0.680986
      vertex 1.06066 0 1.06066
      vertex 1.00875 -0.327762 1.06066
    endloop
  endfacet
  facet normal 0.940447 0.148952 0.30557
    outer loop
      vertex 1.48153 0 0.234652
      vertex 1.40902 0.457819 0.234652
      vertex 1.33651 0 0.680986
    endloop
  endfacet
  facet normal 0.940447 0.148952 0.30557
    outer loop
      vertex 1.40902 0.457819 0.234652
      vertex 1.2711 0.413004 0.680986
      vertex 1.33651 0 0.680986
    endloop
  endfacet
  facet normal 0.848389 0.432276 0.30557
    outer loop
      vertex 1.40902 0.457819 0.234652
      vertex 1.19858 0.870823 0.234652
      vertex 1.2711 0.413004 0.680986
    endloop
  endfacet
  facet normal 0.848389 0.432276 0.30557
    outer loop
      vertex 1.19858 0.870823 0.234652
      vertex 1.08126 0.785581 0.680986
      vertex 1.2711 0.413004 0.680986
    endloop
  endfacet
  facet normal 0.673286 0.673286 0.30557
    outer loop
      vertex 1.19858 0.870823 0.234652
      vertex 0.870823 1.19858 0.234652
      vertex 1.08126 0.785581 0.680986
    endloop
  endfacet
  facet normal 0.673286 0.673286 0.30557
    outer loop
      vertex 0.870823 1.19858 0.234652
      vertex 0.785581 1.08126 0.680986
      vertex 1.08126 0.785581 0.680986
    endloop
  endfacet
  facet normal 0.432276 0.848389 0.30557
    outer loop
      vertex 0.870823 1.19858 0.234652
      vertex 0.457819 1.40902 0.234652
      vertex 0.785581 1.08126 0.680986
    endloop
  endfacet
  facet normal 0.432276 0.848389 0.30557
    outer loop
      vertex 0.457819 1.40902 0.234652
      vertex 0.413004 1.2711 0.680986
      vertex 0.785581 1.08126 0.680986
    endloop
  endfacet
  facet normal 0.148952 0.940447 0.30557
    outer loop
      vertex 0.457819 1.40902 0.234652
      vertex 9.07147e-017 1.48153 0.234652
      vertex 0.413004 1.2711 0.680986
    endloop
  endfacet
  facet normal 0.148952 0.940447 0.30557
    outer loop
      vertex 9.07147e-017 1.48153 0.234652
      vertex 8.18349e-017 1.33651 0.680986
      vertex 0.413004 1.2711 0.680986
    endloop
  endfacet
  facet normal -0.148952 0.940447 0.30557
    outer loop
      vertex 9.07147e-017 1.48153 0.234652
      vertex -0.457819 1.40902 0.234652
      vertex 8.18349e-017 1.33651 0.680986
    endloop
  endfacet
  facet normal -0.148952 0.940447 0.30557
    outer loop
      vertex -0.457819 1.40902 0.234652
      vertex -0.413004 1.2711 0.680986
      vertex 8.18349e-017 1.33651 0.680986
    endloop
  endfacet
  facet normal -0.432276 0.848389 0.30557
    outer loop
      vertex -0.457819 1.40902 0.234652
      vertex -0.870823 1.19858 0.234652
      vertex -0.413004 1.2711 0.680986
    endloop
  endfacet
  facet normal -0.432276 0.848389 0.30557
    outer loop
      vertex -0.870823 1.19858 0.234652
      vertex -0.785581 1.08126 0.680986
      vertex -0.413004 1.2711 0.680986
    endloop
  endfacet
  facet normal -0.673286 0.673286 0.30557
    outer loop
      vertex -0.870823 1.19858 0.234652
      vertex -1.19858 0.870823 0.234652
      vertex -0.785581 1.08126 0.680986
    endloop
  endfacet
  facet normal -0.673286 0.673286 0.30557
    outer loop
      vertex -1.19858 0.870823 0.234652
      vertex -1.08126 0.785581 0.680986
      vertex -0.785581 1.08126 0.680986
    endloop
  endfacet
  facet normal -0.848389 0.432276 0.30557
    outer loop
      vertex -1.19858 0.870823 0.234652
      vertex -1.40902 0.457819 0.234652
      vertex -1.08126 0.785581 0.680986
    endloop
  endfacet
  facet normal -0.848389 0.432276 0.30557
    outer loop
      vertex -1.40902 0.457819 0.234652
      vertex -1.2711 0.413004 0.680986
      vertex -1.08126 0.785581 0.680986
    endloop
  endfacet
  facet normal -0.940447 0.148952 0.30557
    outer loop
      vertex -1.40902 0.457819 0.234652
      vertex -1.48153 1.81429e-016 0.234652
      vertex -1.2711 0.413004 0.680986
    endloop
  endfacet
  facet normal -0.940447 0.148952 0.30557
    outer loop
      vertex -1.48153 1.81429e-016 0.234652
      vertex -1.33651 1.6367e-016 0.680986
      vertex -1.2711 0.413004 0.680986
    endloop
  endfacet
  facet normal -0.940447 -0.148952 0.30557
    outer loop
      vertex -1.48153 1.81429e-016 0.234652
      vertex -1.40902 -0.457819 0.234652
      vertex -1.33651 1.6367e-016 0.680986
    endloop
  endfacet
  facet normal -0.940447 -0.148952 0.30557
    outer loop
      vertex -1.40902 -0.457819 0.234652
      vertex -1.2711 -0.413004 0.680986
      vertex -1.33651 1.6367e-016 0.680986
    endloop
  endfacet
  facet normal -0.848389 -0.432276 0.30557
    outer loop
      vertex -1.40902 -0.457819 0.234652
      vertex -1.19858 -0.870823 0.234652
      vertex -1.2711 -0.413004 0.680986
    endloop
  endfacet
  facet normal -0.848389 -0.432276 0.30557
    outer loop
      vertex -1.19858 -0.870823 0.234652
      vertex -1.08126 -0.785581 0.680986
      vertex -1.2711 -0.413004 0.680986
    endloop
  endfacet
  facet normal -0.673286 -0.673286 0.30557
    outer loop
      vertex -1.19858 -0.870823 0.234652
      vertex -0.870823 -1.19858 0.234652
      vertex -1.08126 -0.785581 0.680986
    endloop
  endfacet
  facet normal -0.673286 -0.673286 0.30557
    outer loop
      vertex -0.870823 -1.19858 0.234652
      vertex -0.785581 -1.08126 0.680986
      vertex -1.08126 -0.785581 0.680986
    endloop
  endfacet
  facet normal -0.432276 -0.848389 0.30557
    outer loop
      vertex -0.870823 -1.19858 0.234652
      vertex -0.457819 -1.40902 0.234652
      vertex -0.785581 -1.08126 0.680986
    endloop
  endfacet
  facet normal -0.432276 -0.848389 0.30557
    outer loop
      vertex -0.457819 -1.40902 0.234652
      vertex -0.413004 -1.2711 0.680986
      vertex -0.785581 -1.08126 0.680986
    endloop
  endfacet
  facet normal -0.148952 -0.940447 0.30557
    outer loop
      vertex -0.457819 -1.40902 0.234652
      vertex -2.72144e-016 -1.48153 0.234652
      vertex -0.413004 -1.2711 0.680986
    endloop
  endfacet
  facet normal -0.148952 -0.940447 0.30557
    outer loop
      vertex -2.72144e-016 -1.48153 0.234652
      vertex -2.45505e-016 -1.33651 0.680986
      vertex -0.413004 -1.2711 0.680986
    endloop
  endfacet
  facet normal 0.148952 -0.940447 0.30557
    outer loop
      vertex -2.72144e-016 -1.48153 0.234652
      vertex 0.457819 -1.40902 0.234652
      vertex -2.45505e-016 -1.33651 0.680986
    endloop
  endfacet
  facet normal 0.148952 -0.940447 0.30557
    outer loop
      vertex 0.457819 -1.40902 0.234652
      vertex 0.413004 -1.2711 0.680986
      vertex -2.45505e-016 -1.33651 0.680986
    endloop
  endfacet
  facet normal 0.432276 -0.848389 0.30557
    outer loop
      vertex 0.457819 -1.40902 0.234652
      vertex 0.870823 -1.19858 0.234652
      vertex 0.413004 -1.2711 0.680986
    endloop
  endfacet
  facet normal 0.432276 -0.848389 0.30557
    outer loop
      vertex 0.870823 -1.19858 0.234652
      vertex 0.785581 -1.08126 0.680986
      vertex 0.413004 -1.2711 0.680986
    endloop
  endfacet
  facet normal 0.673286 -0.673286 0.30557
    outer loop
      vertex 0.870823 -1.19858 0.234652
      vertex 1.19858 -0.870823 0.234652
      vertex 0.785581 -1.08126 0.680986
    endloop
  endfacet
  facet normal 0.673286 -0.673286 0.30557
    outer loop
      vertex 1.19858 -0.870823 0.234652
      vertex 1.08126 -0.785581 0.680986
      vertex 0.785581 -1.08126 0.680986
    endloop
  endfacet
  facet normal 0.848389 -0.432276 0.30557
    outer loop
      vertex 1.19858 -0.870823 0.234652
      vertex 1.40902 -0.457819 0.234652
      vertex 1.08126 -0.785581 0.680986
    endloop
  endfacet
  facet normal 0.848389 -0.432276 0.30557
    outer loop
      vertex 1.40902 -0.457819 0.234652
      vertex 1.2711 -0.413004 0.680986
      vertex 1.08126 -0.785581 0.680986
    endloop
  endfacet
  facet normal 0.940447 -0.148952 0.30557
    outer loop
      vertex 1.40902 -0.457819 0.234652
      vertex 1.48153 0 0.234652
      vertex 1.2711 -0.413004 0.680986
    endloop
  endfacet
  facet normal 0.940447 -0.148952 0.30557
    outer loop
      vertex 1.48153 0 0.234652
      vertex 1.33651 0 0.680986
      vertex 1.2711 -0.413004 0.680986
    endloop
  endfacet
  facet normal 0.987688 0.156434 -0
    outer loop
      vertex 1.48153 0 -0.234652
      vertex 1.40902 0.457819 -0.234652
      vertex 1.48153 0 0.234652
    endloop
  endfacet
  facet normal 0.987688 0.156434 -0
    outer loop
      vertex 1.40902 0.457819 -0.234652
      vertex 1.40902 0.457819 0.234652
      vertex 1.48153 0 0.234652
    endloop
  endfacet
  facet normal 0.891007 0.45399 -0
    outer loop
      vertex 1.40902 0.457819 -0.234652
      vertex 1.19858 0.870823 -0.234652
      vertex 1.40902 0.457819 0.234652
    endloop
  endfacet
  facet normal 0.891007 0.45399 -0
    outer loop
      vertex 1.19858 0.870823 -0.234652
      vertex 1.19858 0.870823 0.234652
      vertex 1.40902 0.457819 0.234652
    endloop
  endfacet
  facet normal 0.707107 0.707107 -0
    outer loop
      vertex 1.19858 0.870823 -0.234652
      vertex 0.870823 1.19858 -0.234652
      vertex 1.19858 0.870823 0.234652
    endloop
  endfacet
  facet normal 0.707107 0.707107 -0
    outer loop
      vertex 0.870823 1.19858 -0.234652
      vertex 0.870823 1.19858 0.234652
      vertex 1.19858 0.870823 0.234652
    endloop
  endfacet
  facet normal 0.45399 0.891007 -0
    outer loop
      vertex 0.870823 1.19858 -0.234652
      vertex 0.457819 1.40902 -0.234652
      vertex 0.870823 1.19858 0.234652
    endloop
  endfacet
  facet normal 0.45399 0.891007 -0
    outer loop
      vertex 0.457819 1.40902 -0.234652
      vertex 0.457819 1.40902 0.234652
      vertex 0.870823 1.19858 0.234652
    endloop
  endfacet
  facet normal 0.156434 0.987688 -0
    outer loop
      vertex 0.457819 1.40902 -0.234652
      vertex 9.07147e-017 1.48153 -0.234652
      vertex 0.457819 1.40902 0.234652
    endloop
  endfacet
  facet normal 0.156434 0.987688 -0
    outer loop
      vertex 9.07147e-017 1.48153 -0.234652
      vertex 9.07147e-017 1.48153 0.234652
      vertex 0.457819 1.40902 0.234652
    endloop
  endfacet
  facet normal -0.156434 0.987688 0
    outer loop
      vertex 9.07147e-017 1.48153 -0.234652
      vertex -0.457819 1.40902 -0.234652
      vertex 9.07147e-017 1.48153 0.234652
    endloop
  endfacet
  facet normal -0.156434 0.987688 0
    outer loop
      vertex -0.457819 1.40902 -0.234652
      vertex -0.457819 1.40902 0.234652
      vertex 9.07147e-017 1.48153 0.234652
    endloop
  endfacet
  facet normal -0.45399 0.891007 0
    outer loop
      vertex -0.457819 1.40902 -0.234652
      vertex -0.870823 1.19858 -0.234652
      vertex -0.457819 1.40902 0.234652
    endloop
  endfacet
  facet normal -0.45399 0.891007 0
    outer loop
      vertex -0.870823 1.19858 -0.234652
      vertex -0.870823 1.19858 0.234652
      vertex -0.457819 1.40902 0.234652
    endloop
  endfacet
  facet normal -0.707107 0.707107 0
    outer loop
      vertex -0.870823 1.19858 -0.234652
      vertex -1.19858 0.870823 -0.234652
      vertex -0.870823 1.19858 0.234652
    endloop
  endfacet
  facet normal -0.707107 0.707107 0
    outer loop
      vertex -1.19858 0.870823 -0.234652
      vertex -1.19858 0.870823 0.234652
      vertex -0.870823 1.19858 0.234652
    endloop
  endfacet
  facet normal -0.891007 0.45399 0
    outer loop
      vertex -1.19858 0.870823 -0.234652
      vertex -1.40902 0.457819 -0.234652
      vertex -1.19858 0.870823 0.234652
    endloop
  endfacet
  facet normal -0.891007 0.45399 0
    outer loop
      vertex -1.40902 0.457819 -0.234652
      vertex -1.40902 0.457819 0.234652
      vertex -1.19858 0.870823 0.234652
    endloop
  endfacet
  facet normal -0.987688 0.156434 0
    outer loop
      vertex -1.40902 0.457819 -0.234652
      vertex -1.48153 1.81429e-016 -0.234652
      vertex -1.40902 0.457819 0.234652
    endloop
  endfacet
  facet normal -0.987688 0.156434 0
    outer loop
      vertex -1.48153 1.81429e-016 -0.234652
      vertex -1.48153 1.81429e-016 0.234652
      vertex -1.40902 0.457819 0.234652
    endloop
  endfacet
  facet normal -0.987688 -0.156434 0
    outer loop
      vertex -1.48153 1.81429e-016 -0.234652
      vertex -1.40902 -0.457819 -0.234652
      vertex -1.48153 1.81429e-016 0.234652
    endloop
  endfacet
  facet normal -0.987688 -0.156434 0
    outer loop
      vertex -1.40902 -0.457819 -0.234652
      vertex -1.40902 -0.457819 0.234652
      vertex -1.48153 1.81429e-016 0.234652
    endloop
  endfacet
  facet normal -0.891007 -0.45399 0
    outer loop
      vertex -1.40902 -0.457819 -0.234652
      vertex -1.19858 -0.870823 -0.234652
      vertex -1.40902 -0.457819 0.234652
    endloop
  endfacet
  facet normal -0.891007 -0.45399 0
    outer loop
      vertex -1.19858 -0.870823 -0.234652
      vertex -1.19858 -0.870823 0.234652
      vertex -1.40902 -0.457819 0.234652
    endloop
  endfacet
  facet normal -0.707107 -0.707107 0
    outer loop
      vertex -1.19858 -0.870823 -0.234652
      vertex -0.870823 -1.19858 -0.234652
      vertex -1.19858 -0.870823 0.234652
    endloop
  endfacet
  facet normal -0.707107 -0.707107 0
    outer loop
      vertex -0.870823 -1.19858 -0.234652
      vertex -0.870823 -1.19858 0.234652
      vertex -1.19858 -0.870823 0.234652
    endloop
  endfacet
  facet normal -0.45399 -0.891007 0
    outer loop
      vertex -0.870823 -1.19858 -0.234652
      vertex -0.457819 -1.40902 -0.234652
      vertex -0.870823 -1.19858 0.234652
    endloop
  endfacet
  facet normal -0.45399 -0.891007 0
    outer loop
      vertex -0.457819 -1.40902 -0.234652
      vertex -0.457819 -1.40902 0.234652
      vertex -0.870823 -1.19858 0.234652
    endloop
  endfacet
  facet normal -0.156434 -0.987688 0
    outer loop
      vertex -0.457819 -1.40902 -0.234652
      vertex -2.72144e-016 -1.48153 -0.234652
      vertex -0.457819 -1.40902 0.234652
    endloop
  endfacet
  facet normal -0.156434 -0.987688 0
    outer loop
      vertex -2.72144e-016 -1.48153 -0.234652
      vertex -2.72144e-016 -1.48153 0.234652
      vertex -0.457819 -1.40902 0.234652
    endloop
  endfacet
  facet normal 0.156434 -0.987688 0
    outer loop
      vertex -2.72144e-016 -1.48153 -0.234652
      vertex 0.457819 -1.40902 -0.234652
      vertex -2.72144e-016 -1.48153 0.234652
    endloop
  endfacet
  facet normal 0.156434 -0.987688 0
    outer loop
      vertex 0.457819 -1.40902 -0.234652
      vertex 0.457819 -1.40902 0.234652
      vertex -2.72144e-016 -1.48153 0.234652
    endloop
  endfacet
  facet normal 0.45399 -0.891007 0
    outer loop
      vertex 0.457819 -1.40902 -0.234652
      vertex 0.870823 -1.19858 -0.234652
      vertex 0.457819 -1.40902 0.234652
    endloop
  endfacet
  facet normal 0.45399 -0.891007 0
    outer loop
      vertex 0.870823 -1.19858 -0.234652
      vertex 0.870823 -1.19858 0.234652
      vertex 0.457819 -1.40902 0.234652
    endloop
  endfacet
  facet normal 0.707107 -0.707107 0
    outer loop
      vertex 0.870823 -1.19858 -0.234652
      vertex 1.19858 -0.870823 -0.234652
      vertex 0.870823 -1.19858 0.234652
    endloop
  endfacet
  facet normal 0.707107 -0.707107 0
    outer loop
      vertex 1.19858 -0.870823 -0.234652
      vertex 1.19858 -0.870823 0.234652
      vertex 0.870823 -1.19858 0.234652
    endloop
  endfacet
  facet normal 0.891007 -0.45399 0
    outer loop
      vertex 1.19858 -0.870823 -0.234652
      vertex 1.40902 -0.457819 -0.234652
      vertex 1.19858 -0.870823 0.234652
    endloop
  endfacet
  facet normal 0.891007 -0.45399 0
    outer loop
      vertex 1.40902 -0.457819 -0.234652
      vertex 1.40902 -0.457819 0.234652
      vertex 1.19858 -0.870823 0.234652
    endloop
  endfacet
  facet normal 0.987688 -0.156434 0
    outer loop
      vertex 1.40902 -0.457819 -0.234652
      vertex 1.48153 0 -0.234652
      vertex 1.40902 -0.457819 0.234652
    endloop
  endfacet
  facet normal 0.987688 -0.156434 0
    outer loop
      vertex 1.48153 0 -0.234652
      vertex 1.48153 0 0.234652
      vertex 1.40902 -0.457819 0.234652
    endloop
  endfacet
  facet normal 0.940447 0.148952 -0.30557
    outer loop
      vertex 1.33651 0 -0.680986
      vertex 1.2711 0.413004 -0.680986
      vertex 1.48153 0 -0.234652
    endloop
  endfacet
  facet normal 0.940447 0.148952 -0.30557
    outer loop
      vertex 1.2711 0.413004 -0.680986
      vertex 1.40902 0.457819 -0.234652
      vertex 1.48153 0 -0.234652
    endloop
  endfacet
  facet normal 0.848389 0.432276 -0.30557
    outer loop
      vertex 1.2711 0.413004 -0.680986
      vertex 1.08126 0.785581 -0.680986
      vertex 1.40902 0.457819 -0.234652
    endloop
  endfacet
  facet normal 0.848389 0.432276 -0.30557
    outer loop
      vertex 1.08126 0.785581 -0.680986
      vertex 1.19858 0.870823 -0.234652
      vertex 1.40902 0.457819 -0.234652
    endloop
  endfacet
  facet normal 0.673286 0.673286 -0.30557
    outer loop
      vertex 1.08126 0.785581 -0.680986
      vertex 0.785581 1.08126 -0.680986
      vertex 1.19858 0.870823 -0.234652
    endloop
  endfacet
  facet normal 0.673286 0.673286 -0.30557
    outer loop
      vertex 0.785581 1.08126 -0.680986
      vertex 0.870823 1.19858 -0.234652
      vertex 1.19858 0.870823 -0.234652
    endloop
  endfacet
  facet normal 0.432276 0.848389 -0.30557
    outer loop
      vertex 0.785581 1.08126 -0.680986
      vertex 0.413004 1.2711 -0.680986
      vertex 0.870823 1.19858 -0.234652
    endloop
  endfacet
  facet normal 0.432276 0.848389 -0.30557
    outer loop
      vertex 0.413004 1.2711 -0.680986
      vertex 0.457819 1.40902 -0.234652
      vertex 0.870823 1.19858 -0.234652
    endloop
  endfacet
  facet normal 0.148952 0.940447 -0.30557
    outer loop
      vertex 0.413004 1.2711 -0.680986
      vertex 8.18349e-017 1.33651 -0.680986
      vertex 0.457819 1.40902 -0.234652
    endloop
  endfacet
  facet normal 0.148952 0.940447 -0.30557
    outer loop
      vertex 8.18349e-017 1.33651 -0.680986
      vertex 9.07147e-017 1.48153 -0.234652
      vertex 0.457819 1.40902 -0.234652
    endloop
  endfacet
  facet normal -0.148952 0.940447 -0.30557
    outer loop
      vertex 8.18349e-017 1.33651 -0.680986
      vertex -0.413004 1.2711 -0.680986
      vertex 9.07147e-017 1.48153 -0.234652
    endloop
  endfacet
  facet normal -0.148952 0.940447 -0.30557
    outer loop
      vertex -0.413004 1.2711 -0.680986
      vertex -0.457819 1.40902 -0.234652
      vertex 9.07147e-017 1.48153 -0.234652
    endloop
  endfacet
  facet normal -0.432276 0.848389 -0.30557
    outer loop
      vertex -0.413004 1.2711 -0.680986
      vertex -0.785581 1.08126 -0.680986
      vertex -0.457819 1.40902 -0.234652
    endloop
  endfacet
  facet normal -0.432276 0.848389 -0.30557
    outer loop
      vertex -0.785581 1.08126 -0.680986
      vertex -0.870823 1.19858 -0.234652
      vertex -0.457819 1.40902 -0.234652
    endloop
  endfacet
  facet normal -0.673286 0.673286 -0.30557
    outer loop
      vertex -0.785581 1.08126 -0.680986
      vertex -1.08126 0.785581 -0.680986
      vertex -0.870823 1.19858 -0.234652
    endloop
  endfacet
  facet normal -0.673286 0.673286 -0.30557
    outer loop
      vertex -1.08126 0.785581 -0.680986
      vertex -1.19858 0.870823 -0.234652
      vertex -0.870823 1.19858 -0.234652
    endloop
  endfacet
  facet normal -0.848389 0.432276 -0.30557
    outer loop
      vertex -1.08126 0.785581 -0.680986
      vertex -1.2711 0.413004 -0.680986
      vertex -1.19858 0.870823 -0.234652
    endloop
  endfacet
  facet normal -0.848389 0.432276 -0.30557
    outer loop
      vertex -1.2711 0.413004 -0.680986
      vertex -1.40902 0.457819 -0.234652
      vertex -1.19858 0.870823 -0.234652
    endloop
  endfacet
  facet normal -0.940447 0.148952 -0.30557
    outer loop
      vertex -1.2711 0.413004 -0.680986
      vertex -1.33651 1.6367e-016 -0.680986
      vertex -1.40902 0.457819 -0.234652
    endloop
  endfacet
  facet normal -0.940447 0.148952 -0.30557
    outer loop
      vertex -1.33651 1.6367e-016 -0.680986
      vertex -1.48153 1.81429e-016 -0.234652
      vertex -1.40902 0.457819 -0.234652
    endloop
  endfacet
  facet normal -0.940447 -0.148952 -0.30557
    outer loop
      vertex -1.33651 1.6367e-016 -0.680986
      vertex -1.2711 -0.413004 -0.680986
      vertex -1.48153 1.81429e-016 -0.234652
    endloop
  endfacet
  facet normal -0.940447 -0.148952 -0.30557
    outer loop
      vertex -1.2711 -0.413004 -0.680986
      vertex -1.40902 -0.457819 -0.234652
      vertex -1.48153 1.81429e-016 -0.234652
    endloop
  endfacet
  facet normal -0.848389 -0.432276 -0.30557
    outer loop
      vertex -1.2711 -0.413004 -0.680986
      vertex -1.08126 -0.785581 -0.680986
      vertex -1.40902 -0.457819 -0.234652
    endloop
  endfacet
  facet normal -0.848389 -0.432276 -0.30557
    outer loop
      vertex -1.08126 -0.785581 -0.680986
      vertex -1.19858 -0.870823 -0.234652
      vertex -1.40902 -0.457819 -0.234652
    endloop
  endfacet
  facet normal -0.673286 -0.673286 -0.30557
    outer loop
      vertex -1.08126 -0.785581 -0.680986
      vertex -0.785581 -1.08126 -0.680986
      vertex -1.19858 -0.870823 -0.234652
    endloop
  endfacet
  facet normal -0.673286 -0.673286 -0.30557
    outer loop
      vertex -0.785581 -1.08126 -0.680986
      vertex -0.870823 -1.19858 -0.234652
      vertex -1.19858 -0.870823 -0.234652
    endloop
  endfacet
  facet normal -0.432276 -0.848389 -0.30557
    outer loop
      vertex -0.785581 -1.08126 -0.680986
      vertex -0.413004 -1.2711 -0.680986
      vertex -0.870823 -1.19858 -0.234652
    endloop
  endfacet
  facet normal -0.432276 -0.848389 -0.30557
    outer loop
      vertex -0.413004 -1.2711 -0.680986
      vertex -0.457819 -1.40902 -0.234652
      vertex -0.870823 -1.19858 -0.234652
    endloop
  endfacet
  facet normal -0.148952 -0.940447 -0.30557
    outer loop
      vertex -0.413004 -1.2711 -0.680986
      vertex -2.45505e-016 -1.33651 -0.680986
      vertex -0.457819 -1.40902 -0.234652
    endloop
  endfacet
  facet normal -0.148952 -0.940447 -0.30557
    outer loop
      vertex -2.45505e-016 -1.33651 -0.680986
      vertex -2.72144e-016 -1.48153 -0.234652
      vertex -0.457819 -1.40902 -0.234652
    endloop
  endfacet
  facet normal 0.148952 -0.940447 -0.30557
    outer loop
      vertex -2.45505e-016 -1.33651 -0.680986
      vertex 0.413004 -1.2711 -0.680986
      vertex -2.72144e-016 -1.48153 -0.234652
    endloop
  endfacet
  facet normal 0.148952 -0.940447 -0.30557
    outer loop
      vertex 0.413004 -1.2711 -0.680986
      vertex 0.457819 -1.40902 -0.234652
      vertex -2.72144e-016 -1.48153 -0.234652
    endloop
  endfacet
  facet normal 0.432276 -0.848389 -0.30557
    outer loop
      vertex 0.413004 -1.2711 -0.680986
      vertex 0.785581 -1.08126 -0.680986
      vertex 0.457819 -1.40902 -0.234652
    endloop
  endfacet
  facet normal 0.432276 -0.848389 -0.30557
    outer loop
      vertex 0.785581 -1.08126 -0.680986
      vertex 0.870823 -1.19858 -0.234652
      vertex 0.457819 -1.40902 -0.234652
    endloop
  endfacet
  facet normal 0.673286 -0.673286 -0.30557
    outer loop
      vertex 0.785581 -1.08126 -0.680986
      vertex 1.08126 -0.785581 -0.680986
      vertex 0.870823 -1.19858 -0.234652
    endloop
  endfacet
  facet normal 0.673286 -0.673286 -0.30557
    outer loop
      vertex 1.08126 -0.785581 -0.680986
      vertex 1.19858 -0.870823 -0.234652
      vertex 0.870823 -1.19858 -0.234652
    endloop
  endfacet
  facet normal 0.848389 -0.432276 -0.30557
    outer loop
      vertex 1.08126 -0.785581 -0.680986
      vertex 1.2711 -0.413004 -0.680986
      vertex 1.19858 -0.870823 -0.234652
    endloop
  endfacet
  facet normal 0.848389 -0.432276 -0.30557
    outer loop
      vertex 1.2711 -0.413004 -0.680986
      vertex 1.40902 -0.457819 -0.234652
      vertex 1.19858 -0.870823 -0.234652
    endloop
  endfacet
  facet normal 0.940447 -0.148952 -0.30557
    outer loop
      vertex 1.2711 -0.413004 -0.680986
      vertex 1.33651 0 -0.680986
      vertex 1.40902 -0.457819 -0.234652
    endloop
  endfacet
  facet normal 0.940447 -0.148952 -0.30557
    outer loop
      vertex 1.33651 0 -0.680986
      vertex 1.48153 0 -0.234652
      vertex 1.40902 -0.457819 -0.234652
    endloop
  endfacet
  facet normal 0.802456 0.127097 -0.583019
    outer loop
      vertex 1.06066 0 -1.06066
      vertex 1.00875 0.327762 -1.06066
      vertex 1.33651 0 -0.680986
    endloop
  endfacet
  facet normal 0.802456 0.127097 -0.583019
    outer loop
      vertex 1.00875 0.327762 -1.06066
      vertex 1.2711 0.413004 -0.680986
      vertex 1.33651 0 -0.680986
    endloop
  endfacet
  facet normal 0.723906 0.368849 -0.583019
    outer loop
      vertex 1.00875 0.327762 -1.06066
      vertex 0.858092 0.62344 -1.06066
      vertex 1.2711 0.413004 -0.680986
    endloop
  endfacet
  facet normal 0.723906 0.368849 -0.583019
    outer loop
      vertex 0.858092 0.62344 -1.06066
      vertex 1.08126 0.785581 -0.680986
      vertex 1.2711 0.413004 -0.680986
    endloop
  endfacet
  facet normal 0.574495 0.574495 -0.583019
    outer loop
      vertex 0.858092 0.62344 -1.06066
      vertex 0.62344 0.858092 -1.06066
      vertex 1.08126 0.785581 -0.680986
    endloop
  endfacet
  facet normal 0.574495 0.574495 -0.583019
    outer loop
      vertex 0.62344 0.858092 -1.06066
      vertex 0.785581 1.08126 -0.680986
      vertex 1.08126 0.785581 -0.680986
    endloop
  endfacet
  facet normal 0.368849 0.723906 -0.583019
    outer loop
      vertex 0.62344 0.858092 -1.06066
      vertex 0.327762 1.00875 -1.06066
      vertex 0.785581 1.08126 -0.680986
    endloop
  endfacet
  facet normal 0.368849 0.723906 -0.583019
    outer loop
      vertex 0.327762 1.00875 -1.06066
      vertex 0.413004 1.2711 -0.680986
      vertex 0.785581 1.08126 -0.680986
    endloop
  endfacet
  facet normal 0.127097 0.802456 -0.583019
    outer loop
      vertex 0.327762 1.00875 -1.06066
      vertex 6.49446e-017 1.06066 -1.06066
      vertex 0.413004 1.2711 -0.680986
    endloop
  endfacet
  facet normal 0.127097 0.802456 -0.583019
    outer loop
      vertex 6.49446e-017 1.06066 -1.06066
      vertex 8.18349e-017 1.33651 -0.680986
      vertex 0.413004 1.2711 -0.680986
    endloop
  endfacet
  facet normal -0.127097 0.802456 -0.583019
    outer loop
      vertex 6.49446e-017 1.06066 -1.06066
      vertex -0.327762 1.00875 -1.06066
      vertex 8.18349e-017 1.33651 -0.680986
    endloop
  endfacet
  facet normal -0.127097 0.802456 -0.583019
    outer loop
      vertex -0.327762 1.00875 -1.06066
      vertex -0.413004 1.2711 -0.680986
      vertex 8.18349e-017 1.33651 -0.680986
    endloop
  endfacet
  facet normal -0.368849 0.723906 -0.583019
    outer loop
      vertex -0.327762 1.00875 -1.06066
      vertex -0.62344 0.858092 -1.06066
      vertex -0.413004 1.2711 -0.680986
    endloop
  endfacet
  facet normal -0.368849 0.723906 -0.583019
    outer loop
      vertex -0.62344 0.858092 -1.06066
      vertex -0.785581 1.08126 -0.680986
      vertex -0.413004 1.2711 -0.680986
    endloop
  endfacet
  facet normal -0.574495 0.574495 -0.583019
    outer loop
      vertex -0.62344 0.858092 -1.06066
      vertex -0.858092 0.62344 -1.06066
      vertex -0.785581 1.08126 -0.680986
    endloop
  endfacet
  facet normal -0.574495 0.574495 -0.583019
    outer loop
      vertex -0.858092 0.62344 -1.06066
      vertex -1.08126 0.785581 -0.680986
      vertex -0.785581 1.08126 -0.680986
    endloop
  endfacet
  facet normal -0.723906 0.368849 -0.583019
    outer loop
      vertex -0.858092 0.62344 -1.06066
      vertex -1.00875 0.327762 -1.06066
      vertex -1.08126 0.785581 -0.680986
    endloop
  endfacet
  facet normal -0.723906 0.368849 -0.583019
    outer loop
      vertex -1.00875 0.327762 -1.06066
      vertex -1.2711 0.413004 -0.680986
      vertex -1.08126 0.785581 -0.680986
    endloop
  endfacet
  facet normal -0.802456 0.127097 -0.583019
    outer loop
      vertex -1.00875 0.327762 -1.06066
      vertex -1.06066 1.29889e-016 -1.06066
      vertex -1.2711 0.413004 -0.680986
    endloop
  endfacet
  facet normal -0.802456 0.127097 -0.583019
    outer loop
      vertex -1.06066 1.29889e-016 -1.06066
      vertex -1.33651 1.6367e-016 -0.680986
      vertex -1.2711 0.413004 -0.680986
    endloop
  endfacet
  facet normal -0.802456 -0.127097 -0.583019
    outer loop
      vertex -1.06066 1.29889e-016 -1.06066
      vertex -1.00875 -0.327762 -1.06066
      vertex -1.33651 1.6367e-016 -0.680986
    endloop
  endfacet
  facet normal -0.802456 -0.127097 -0.583019
    outer loop
      vertex -1.00875 -0.327762 -1.06066
      vertex -1.2711 -0.413004 -0.680986
      vertex -1.33651 1.6367e-016 -0.680986
    endloop
  endfacet
  facet normal -0.723906 -0.368849 -0.583019
    outer loop
      vertex -1.00875 -0.327762 -1.06066
      vertex -0.858092 -0.62344 -1.06066
      vertex -1.2711 -0.413004 -0.680986
    endloop
  endfacet
  facet normal -0.723906 -0.368849 -0.583019
    outer loop
      vertex -0.858092 -0.62344 -1.06066
      vertex -1.08126 -0.785581 -0.680986
      vertex -1.2711 -0.413004 -0.680986
    endloop
  endfacet
  facet normal -0.574495 -0.574495 -0.583019
    outer loop
      vertex -0.858092 -0.62344 -1.06066
      vertex -0.62344 -0.858092 -1.06066
      vertex -1.08126 -0.785581 -0.680986
    endloop
  endfacet
  facet normal -0.574495 -0.574495 -0.583019
    outer loop
      vertex -0.62344 -0.858092 -1.06066
      vertex -0.785581 -1.08126 -0.680986
      vertex -1.08126 -0.785581 -0.680986
    endloop
  endfacet
  facet normal -0.368849 -0.723906 -0.583019
    outer loop
      vertex -0.62344 -0.858092 -1.06066
      vertex -0.327762 -1.00875 -1.06066
      vertex -0.785581 -1.08126 -0.680986
    endloop
  endfacet
  facet normal -0.368849 -0.723906 -0.583019
    outer loop
      vertex -0.327762 -1.00875 -1.06066
      vertex -0.413004 -1.2711 -0.680986
      vertex -0.785581 -1.08126 -0.680986
    endloop
  endfacet
  facet normal -0.127097 -0.802456 -0.583019
    outer loop
      vertex -0.327762 -1.00875 -1.06066
      vertex -1.94834e-016 -1.06066 -1.06066
      vertex -0.413004 -1.2711 -0.680986
    endloop
  endfacet
  facet normal -0.127097 -0.802456 -0.583019
    outer loop
      vertex -1.94834e-016 -1.06066 -1.06066
      vertex -2.45505e-016 -1.33651 -0.680986
      vertex -0.413004 -1.2711 -0.680986
    endloop
  endfacet
  facet normal 0.127097 -0.802456 -0.583019
    outer loop
      vertex -1.94834e-016 -1.06066 -1.06066
      vertex 0.327762 -1.00875 -1.06066
      vertex -2.45505e-016 -1.33651 -0.680986
    endloop
  endfacet
  facet normal 0.127097 -0.802456 -0.583019
    outer loop
      vertex 0.327762 -1.00875 -1.06066
      vertex 0.413004 -1.2711 -0.680986
      vertex -2.45505e-016 -1.33651 -0.680986
    endloop
  endfacet
  facet normal 0.368849 -0.723906 -0.583019
    outer loop
      vertex 0.327762 -1.00875 -1.06066
      vertex 0.62344 -0.858092 -1.06066
      vertex 0.413004 -1.2711 -0.680986
    endloop
  endfacet
  facet normal 0.368849 -0.723906 -0.583019
    outer loop
      vertex 0.62344 -0.858092 -1.06066
      vertex 0.785581 -1.08126 -0.680986
      vertex 0.413004 -1.2711 -0.680986
    endloop
  endfacet
  facet normal 0.574495 -0.574495 -0.583019
    outer loop
      vertex 0.62344 -0.858092 -1.06066
      vertex 0.858092 -0.62344 -1.06066
      vertex 0.785581 -1.08126 -0.680986
    endloop
  endfacet
  facet normal 0.574495 -0.574495 -0.583019
    outer loop
      vertex 0.858092 -0.62344 -1.06066
      vertex 1.08126 -0.785581 -0.680986
      vertex 0.785581 -1.08126 -0.680986
    endloop
  endfacet
  facet normal 0.723906 -0.368849 -0.583019
    outer loop
      vertex 0.858092 -0.62344 -1.06066
      vertex 1.00875 -0.327762 -1.06066
      vertex 1.08126 -0.785581 -0.680986
    endloop
  endfacet
  facet normal 0.723906 -0.368849 -0.583019
    outer loop
      vertex 1.00875 -0.327762 -1.06066
      vertex 1.2711 -0.413004 -0.680986
      vertex 1.08126 -0.785581 -0.680986
    endloop
  endfacet
  facet normal 0.802456 -0.127097 -0.583019
    outer loop
      vertex 1.00875 -0.327762 -1.06066
      vertex 1.06066 0 -1.06066
      vertex 1.2711 -0.413004 -0.680986
    endloop
  endfacet
  facet normal 0.802456 -0.127097 -0.583019
    outer loop
      vertex 1.06066 0 -1.06066
      vertex 1.33651 0 -0.680986
      vertex 1.2711 -0.413004 -0.680986
    endloop
  endfacet
  facet normal 0.585255 0.0926952 -0.805534
    outer loop
      vertex 0.680986 0 -1.33651
      vertex 0.647656 0.210436 -1.33651
      vertex 1.06066 0 -1.06066
    endloop
  endfacet
  facet normal 0.585255 0.0926952 -0.805534
    outer loop
      vertex 0.647656 0.210436 -1.33651
      vertex 1.00875 0.327762 -1.06066
      vertex 1.06066 0 -1.06066
    endloop
  endfacet
  facet normal 0.527966 0.269012 -0.805534
    outer loop
      vertex 0.647656 0.210436 -1.33651
      vertex 0.550929 0.400273 -1.33651
      vertex 1.00875 0.327762 -1.06066
    endloop
  endfacet
  facet normal 0.527966 0.269012 -0.805534
    outer loop
      vertex 0.550929 0.400273 -1.33651
      vertex 0.858092 0.62344 -1.06066
      vertex 1.00875 0.327762 -1.06066
    endloop
  endfacet
  facet normal 0.418996 0.418996 -0.805534
    outer loop
      vertex 0.550929 0.400273 -1.33651
      vertex 0.400273 0.550929 -1.33651
      vertex 0.858092 0.62344 -1.06066
    endloop
  endfacet
  facet normal 0.418996 0.418996 -0.805534
    outer loop
      vertex 0.400273 0.550929 -1.33651
      vertex 0.62344 0.858092 -1.06066
      vertex 0.858092 0.62344 -1.06066
    endloop
  endfacet
  facet normal 0.269012 0.527966 -0.805534
    outer loop
      vertex 0.400273 0.550929 -1.33651
      vertex 0.210436 0.647656 -1.33651
      vertex 0.62344 0.858092 -1.06066
    endloop
  endfacet
  facet normal 0.269012 0.527966 -0.805534
    outer loop
      vertex 0.210436 0.647656 -1.33651
      vertex 0.327762 1.00875 -1.06066
      vertex 0.62344 0.858092 -1.06066
    endloop
  endfacet
  facet normal 0.0926952 0.585255 -0.805534
    outer loop
      vertex 0.210436 0.647656 -1.33651
      vertex 4.1697e-017 0.680986 -1.33651
      vertex 0.327762 1.00875 -1.06066
    endloop
  endfacet
  facet normal 0.0926952 0.585255 -0.805534
    outer loop
      vertex 4.1697e-017 0.680986 -1.33651
      vertex 6.49446e-017 1.06066 -1.06066
      vertex 0.327762 1.00875 -1.06066
    endloop
  endfacet
  facet normal -0.0926952 0.585255 -0.805534
    outer loop
      vertex 4.1697e-017 0.680986 -1.33651
      vertex -0.210436 0.647656 -1.33651
      vertex 6.49446e-017 1.06066 -1.06066
    endloop
  endfacet
  facet normal -0.0926952 0.585255 -0.805534
    outer loop
      vertex -0.210436 0.647656 -1.33651
      vertex -0.327762 1.00875 -1.06066
      vertex 6.49446e-017 1.06066 -1.06066
    endloop
  endfacet
  facet normal -0.269012 0.527966 -0.805534
    outer loop
      vertex -0.210436 0.647656 -1.33651
      vertex -0.400273 0.550929 -1.33651
      vertex -0.327762 1.00875 -1.06066
    endloop
  endfacet
  facet normal -0.269012 0.527966 -0.805534
    outer loop
      vertex -0.400273 0.550929 -1.33651
      vertex -0.62344 0.858092 -1.06066
      vertex -0.327762 1.00875 -1.06066
    endloop
  endfacet
  facet normal -0.418996 0.418996 -0.805534
    outer loop
      vertex -0.400273 0.550929 -1.33651
      vertex -0.550929 0.400273 -1.33651
      vertex -0.62344 0.858092 -1.06066
    endloop
  endfacet
  facet normal -0.418996 0.418996 -0.805534
    outer loop
      vertex -0.550929 0.400273 -1.33651
      vertex -0.858092 0.62344 -1.06066
      vertex -0.62344 0.858092 -1.06066
    endloop
  endfacet
  facet normal -0.527966 0.269012 -0.805534
    outer loop
      vertex -0.550929 0.400273 -1.33651
      vertex -0.647656 0.210436 -1.33651
      vertex -0.858092 0.62344 -1.06066
    endloop
  endfacet
  facet normal -0.527966 0.269012 -0.805534
    outer loop
      vertex -0.647656 0.210436 -1.33651
      vertex -1.00875 0.327762 -1.06066
      vertex -0.858092 0.62344 -1.06066
    endloop
  endfacet
  facet normal -0.585255 0.0926952 -0.805534
    outer loop
      vertex -0.647656 0.210436 -1.33651
      vertex -0.680986 8.33939e-017 -1.33651
      vertex -1.00875 0.327762 -1.06066
    endloop
  endfacet
  facet normal -0.585255 0.0926952 -0.805534
    outer loop
      vertex -0.680986 8.33939e-017 -1.33651
      vertex -1.06066 1.29889e-016 -1.06066
      vertex -1.00875 0.327762 -1.06066
    endloop
  endfacet
  facet normal -0.585255 -0.0926952 -0.805534
    outer loop
      vertex -0.680986 8.33939e-017 -1.33651
      vertex -0.647656 -0.210436 -1.33651
      vertex -1.06066 1.29889e-016 -1.06066
    endloop
  endfacet
  facet normal -0.585255 -0.0926952 -0.805534
    outer loop
      vertex -0.647656 -0.210436 -1.33651
      vertex -1.00875 -0.327762 -1.06066
      vertex -1.06066 1.29889e-016 -1.06066
    endloop
  endfacet
  facet normal -0.527966 -0.269012 -0.805534
    outer loop
      vertex -0.647656 -0.210436 -1.33651
      vertex -0.550929 -0.400273 -1.33651
      vertex -1.00875 -0.327762 -1.06066
    endloop
  endfacet
  facet normal -0.527966 -0.269012 -0.805534
    outer loop
      vertex -0.550929 -0.400273 -1.33651
      vertex -0.858092 -0.62344 -1.06066
      vertex -1.00875 -0.327762 -1.06066
    endloop
  endfacet
  facet normal -0.418996 -0.418996 -0.805534
    outer loop
      vertex -0.550929 -0.400273 -1.33651
      vertex -0.400273 -0.550929 -1.33651
      vertex -0.858092 -0.62344 -1.06066
    endloop
  endfacet
  facet normal -0.418996 -0.418996 -0.805534
    outer loop
      vertex -0.400273 -0.550929 -1.33651
      vertex -0.62344 -0.858092 -1.06066
      vertex -0.858092 -0.62344 -1.06066
    endloop
  endfacet
  facet normal -0.269012 -0.527966 -0.805534
    outer loop
      vertex -0.400273 -0.550929 -1.33651
      vertex -0.210436 -0.647656 -1.33651
      vertex -0.62344 -0.858092 -1.06066
    endloop
  endfacet
  facet normal -0.269012 -0.527966 -0.805534
    outer loop
      vertex -0.210436 -0.647656 -1.33651
      vertex -0.327762 -1.00875 -1.06066
      vertex -0.62344 -0.858092 -1.06066
    endloop
  endfacet
  facet normal -0.0926952 -0.585255 -0.805534
    outer loop
      vertex -0.210436 -0.647656 -1.33651
      vertex -1.25091e-016 -0.680986 -1.33651
      vertex -0.327762 -1.00875 -1.06066
    endloop
  endfacet
  facet normal -0.0926952 -0.585255 -0.805534
    outer loop
      vertex -1.25091e-016 -0.680986 -1.33651
      vertex -1.94834e-016 -1.06066 -1.06066
      vertex -0.327762 -1.00875 -1.06066
    endloop
  endfacet
  facet normal 0.0926952 -0.585255 -0.805534
    outer loop
      vertex -1.25091e-016 -0.680986 -1.33651
      vertex 0.210436 -0.647656 -1.33651
      vertex -1.94834e-016 -1.06066 -1.06066
    endloop
  endfacet
  facet normal 0.0926952 -0.585255 -0.805534
    outer loop
      vertex 0.210436 -0.647656 -1.33651
      vertex 0.327762 -1.00875 -1.06066
      vertex -1.94834e-016 -1.06066 -1.06066
    endloop
  endfacet
  facet normal 0.269012 -0.527966 -0.805534
    outer loop
      vertex 0.210436 -0.647656 -1.33651
      vertex 0.400273 -0.550929 -1.33651
      vertex 0.327762 -1.00875 -1.06066
    endloop
  endfacet
  facet normal 0.269012 -0.527966 -0.805534
    outer loop
      vertex 0.400273 -0.550929 -1.33651
      vertex 0.62344 -0.858092 -1.06066
      vertex 0.327762 -1.00875 -1.06066
    endloop
  endfacet
  facet normal 0.418996 -0.418996 -0.805534
    outer loop
      vertex 0.400273 -0.550929 -1.33651
      vertex 0.550929 -0.400273 -1.33651
      vertex 0.62344 -0.858092 -1.06066
    endloop
  endfacet
  facet normal 0.418996 -0.418996 -0.805534
    outer loop
      vertex 0.550929 -0.400273 -1.33651
      vertex 0.858092 -0.62344 -1.06066
      vertex 0.62344 -0.858092 -1.06066
    endloop
  endfacet
  facet normal 0.527966 -0.269012 -0.805534
    outer loop
      vertex 0.550929 -0.400273 -1.33651
      vertex 0.647656 -0.210436 -1.33651
      vertex 0.858092 -0.62344 -1.06066
    endloop
  endfacet
  facet normal 0.527966 -0.269012 -0.805534
    outer loop
      vertex 0.647656 -0.210436 -1.33651
      vertex 1.00875 -0.327762 -1.06066
      vertex 0.858092 -0.62344 -1.06066
    endloop
  endfacet
  facet normal 0.585255 -0.0926952 -0.805534
    outer loop
      vertex 0.647656 -0.210436 -1.33651
      vertex 0.680986 0 -1.33651
      vertex 1.00875 -0.327762 -1.06066
    endloop
  endfacet
  facet normal 0.585255 -0.0926952 -0.805534
    outer loop
      vertex 0.680986 0 -1.33651
      vertex 1.06066 0 -1.06066
      vertex 1.00875 -0.327762 -1.06066
    endloop
  endfacet
  facet normal 0.308648 0.048885 -0.949919
    outer loop
      vertex 0.234652 0 -1.48153
      vertex 0.223167 0.0725114 -1.48153
      vertex 0.680986 0 -1.33651
    endloop
  endfacet
  facet normal 0.308648 0.048885 -0.949919
    outer loop
      vertex 0.223167 0.0725114 -1.48153
      vertex 0.647656 0.210436 -1.33651
      vertex 0.680986 0 -1.33651
    endloop
  endfacet
  facet normal 0.278435 0.14187 -0.949919
    outer loop
      vertex 0.223167 0.0725114 -1.48153
      vertex 0.189837 0.137925 -1.48153
      vertex 0.647656 0.210436 -1.33651
    endloop
  endfacet
  facet normal 0.278435 0.14187 -0.949919
    outer loop
      vertex 0.189837 0.137925 -1.48153
      vertex 0.550929 0.400273 -1.33651
      vertex 0.647656 0.210436 -1.33651
    endloop
  endfacet
  facet normal 0.220967 0.220967 -0.949919
    outer loop
      vertex 0.189837 0.137925 -1.48153
      vertex 0.137925 0.189837 -1.48153
      vertex 0.550929 0.400273 -1.33651
    endloop
  endfacet
  facet normal 0.220967 0.220967 -0.949919
    outer loop
      vertex 0.137925 0.189837 -1.48153
      vertex 0.400273 0.550929 -1.33651
      vertex 0.550929 0.400273 -1.33651
    endloop
  endfacet
  facet normal 0.14187 0.278435 -0.949919
    outer loop
      vertex 0.137925 0.189837 -1.48153
      vertex 0.0725114 0.223167 -1.48153
      vertex 0.400273 0.550929 -1.33651
    endloop
  endfacet
  facet normal 0.14187 0.278435 -0.949919
    outer loop
      vertex 0.0725114 0.223167 -1.48153
      vertex 0.210436 0.647656 -1.33651
      vertex 0.400273 0.550929 -1.33651
    endloop
  endfacet
  facet normal 0.048885 0.308648 -0.949919
    outer loop
      vertex 0.0725114 0.223167 -1.48153
      vertex 1.43678e-017 0.234652 -1.48153
      vertex 0.210436 0.647656 -1.33651
    endloop
  endfacet
  facet normal 0.048885 0.308648 -0.949919
    outer loop
      vertex 1.43678e-017 0.234652 -1.48153
      vertex 4.1697e-017 0.680986 -1.33651
      vertex 0.210436 0.647656 -1.33651
    endloop
  endfacet
  facet normal -0.048885 0.308648 -0.949919
    outer loop
      vertex 1.43678e-017 0.234652 -1.48153
      vertex -0.0725114 0.223167 -1.48153
      vertex 4.1697e-017 0.680986 -1.33651
    endloop
  endfacet
  facet normal -0.048885 0.308648 -0.949919
    outer loop
      vertex -0.0725114 0.223167 -1.48153
      vertex -0.210436 0.647656 -1.33651
      vertex 4.1697e-017 0.680986 -1.33651
    endloop
  endfacet
  facet normal -0.14187 0.278435 -0.949919
    outer loop
      vertex -0.0725114 0.223167 -1.48153
      vertex -0.137925 0.189837 -1.48153
      vertex -0.210436 0.647656 -1.33651
    endloop
  endfacet
  facet normal -0.14187 0.278435 -0.949919
    outer loop
      vertex -0.137925 0.189837 -1.48153
      vertex -0.400273 0.550929 -1.33651
      vertex -0.210436 0.647656 -1.33651
    endloop
  endfacet
  facet normal -0.220967 0.220967 -0.949919
    outer loop
      vertex -0.137925 0.189837 -1.48153
      vertex -0.189837 0.137925 -1.48153
      vertex -0.400273 0.550929 -1.33651
    endloop
  endfacet
  facet normal -0.220967 0.220967 -0.949919
    outer loop
      vertex -0.189837 0.137925 -1.48153
      vertex -0.550929 0.400273 -1.33651
      vertex -0.400273 0.550929 -1.33651
    endloop
  endfacet
  facet normal -0.278435 0.14187 -0.949919
    outer loop
      vertex -0.189837 0.137925 -1.48153
      vertex -0.223167 0.0725114 -1.48153
      vertex -0.550929 0.400273 -1.33651
    endloop
  endfacet
  facet normal -0.278435 0.14187 -0.949919
    outer loop
      vertex -0.223167 0.0725114 -1.48153
      vertex -0.647656 0.210436 -1.33651
      vertex -0.550929 0.400273 -1.33651
    endloop
  endfacet
  facet normal -0.308648 0.048885 -0.949919
    outer loop
      vertex -0.223167 0.0725114 -1.48153
      vertex -0.234652 2.87356e-017 -1.48153
      vertex -0.647656 0.210436 -1.33651
    endloop
  endfacet
  facet normal -0.308648 0.048885 -0.949919
    outer loop
      vertex -0.234652 2.87356e-017 -1.48153
      vertex -0.680986 8.33939e-017 -1.33651
      vertex -0.647656 0.210436 -1.33651
    endloop
  endfacet
  facet normal -0.308648 -0.048885 -0.949919
    outer loop
      vertex -0.234652 2.87356e-017 -1.48153
      vertex -0.223167 -0.0725114 -1.48153
      vertex -0.680986 8.33939e-017 -1.33651
    endloop
  endfacet
  facet normal -0.308648 -0.048885 -0.949919
    outer loop
      vertex -0.223167 -0.0725114 -1.48153
      vertex -0.647656 -0.210436 -1.33651
      vertex -0.680986 8.33939e-017 -1.33651
    endloop
  endfacet
  facet normal -0.278435 -0.14187 -0.949919
    outer loop
      vertex -0.223167 -0.0725114 -1.48153
      vertex -0.189837 -0.137925 -1.48153
      vertex -0.647656 -0.210436 -1.33651
    endloop
  endfacet
  facet normal -0.278435 -0.14187 -0.949919
    outer loop
      vertex -0.189837 -0.137925 -1.48153
      vertex -0.550929 -0.400273 -1.33651
      vertex -0.647656 -0.210436 -1.33651
    endloop
  endfacet
  facet normal -0.220967 -0.220967 -0.949919
    outer loop
      vertex -0.189837 -0.137925 -1.48153
      vertex -0.137925 -0.189837 -1.48153
      vertex -0.550929 -0.400273 -1.33651
    endloop
  endfacet
  facet normal -0.220967 -0.220967 -0.949919
    outer loop
      vertex -0.137925 -0.189837 -1.48153
      vertex -0.400273 -0.550929 -1.33651
      vertex -0.550929 -0.400273 -1.33651
    endloop
  endfacet
  facet normal -0.14187 -0.278435 -0.949919
    outer loop
      vertex -0.137925 -0.189837 -1.48153
      vertex -0.0725114 -0.223167 -1.48153
      vertex -0.400273 -0.550929 -1.33651
    endloop
  endfacet
  facet normal -0.14187 -0.278435 -0.949919
    outer loop
      vertex -0.0725114 -0.223167 -1.48153
      vertex -0.210436 -0.647656 -1.33651
      vertex -0.400273 -0.550929 -1.33651
    endloop
  endfacet
  facet normal -0.048885 -0.308648 -0.949919
    outer loop
      vertex -0.0725114 -0.223167 -1.48153
      vertex -4.31034e-017 -0.234652 -1.48153
      vertex -0.210436 -0.647656 -1.33651
    endloop
  endfacet
  facet normal -0.048885 -0.308648 -0.949919
    outer loop
      vertex -4.31034e-017 -0.234652 -1.48153
      vertex -1.25091e-016 -0.680986 -1.33651
      vertex -0.210436 -0.647656 -1.33651
    endloop
  endfacet
  facet normal 0.048885 -0.308648 -0.949919
    outer loop
      vertex -4.31034e-017 -0.234652 -1.48153
      vertex 0.0725114 -0.223167 -1.48153
      vertex -1.25091e-016 -0.680986 -1.33651
    endloop
  endfacet
  facet normal 0.048885 -0.308648 -0.949919
    outer loop
      vertex 0.0725114 -0.223167 -1.48153
      vertex 0.210436 -0.647656 -1.33651
      vertex -1.25091e-016 -0.680986 -1.33651
    endloop
  endfacet
  facet normal 0.14187 -0.278435 -0.949919
    outer loop
      vertex 0.0725114 -0.223167 -1.48153
      vertex 0.137925 -0.189837 -1.48153
      vertex 0.210436 -0.647656 -1.33651
    endloop
  endfacet
  facet normal 0.14187 -0.278435 -0.949919
    outer loop
      vertex 0.137925 -0.189837 -1.48153
      vertex 0.400273 -0.550929 -1.33651
      vertex 0.210436 -0.647656 -1.33651
    endloop
  endfacet
  facet normal 0.220967 -0.220967 -0.949919
    outer loop
      vertex 0.137925 -0.189837 -1.48153
      vertex 0.189837 -0.137925 -1.48153
      vertex 0.400273 -0.550929 -1.33651
    endloop
  endfacet
  facet normal 0.220967 -0.220967 -0.949919
    outer loop
      vertex 0.189837 -0.137925 -1.48153
      vertex 0.550929 -0.400273 -1.33651
      vertex 0.400273 -0.550929 -1.33651
    endloop
  endfacet
  facet normal 0.278435 -0.14187 -0.949919
    outer loop
      vertex 0.189837 -0.137925 -1.48153
      vertex 0.223167 -0.0725114 -1.48153
      vertex 0.550929 -0.400273 -1.33651
    endloop
  endfacet
  facet normal 0.278435 -0.14187 -0.949919
    outer loop
      vertex 0.223167 -0.0725114 -1.48153
      vertex 0.647656 -0.210436 -1.33651
      vertex 0.550929 -0.400273 -1.33651
    endloop
  endfacet
  facet normal 0.308648 -0.048885 -0.949919
    outer loop
      vertex 0.223167 -0.0725114 -1.48153
      vertex 0.234652 0 -1.48153
      vertex 0.647656 -0.210436 -1.33651
    endloop
  endfacet
  facet normal 0.308648 -0.048885 -0.949919
    outer loop
      vertex 0.234652 0 -1.48153
      vertex 0.680986 0 -1.33651
      vertex 0.647656 -0.210436 -1.33651
    endloop
  endfacet
  facet normal 0 0 1
    outer loop
      vertex 0.223167 0.0725114 1.48153
      vertex 0.223167 -0.0725114 1.48153
      vertex 0.234652 0 1.48153
    endloop
  endfacet
  facet normal 0 0 1
    outer loop
      vertex 0.189837 0.137925 1.48153
      vertex 0.223167 -0.0725114 1.48153
      vertex 0.223167 0.0725114 1.48153
    endloop
  endfacet
  facet normal 0 0 1
    outer loop
      vertex 0.189837 0.137925 1.48153
      vertex 0.189837 -0.137925 1.48153
      vertex 0.223167 -0.0725114 1.48153
    endloop
  endfacet
  facet normal 0 0 1
    outer loop
      vertex 0.137925 0.189837 1.48153
      vertex 0.189837 -0.137925 1.48153
      vertex 0.189837 0.137925 1.48153
    endloop
  endfacet
  facet normal 0 0 1
    outer loop
      vertex 0.137925 0.189837 1.48153
      vertex 0.137925 -0.189837 1.48153
      vertex 0.189837 -0.137925 1.48153
    endloop
  endfacet
  facet normal 0 0 1
    outer loop
      vertex 0.0725114 0.223167 1.48153
      vertex 0.137925 -0.189837 1.48153
      vertex 0.137925 0.189837 1.48153
    endloop
  endfacet
  facet normal 0 0 1
    outer loop
      vertex 0.0725114 0.223167 1.48153
      vertex 0.0725114 -0.223167 1.48153
      vertex 0.137925 -0.189837 1.48153
    endloop
  endfacet
  facet normal 0 0 1
    outer loop
      vertex 1.43678e-017 0.234652 1.48153
      vertex 0.0725114 -0.223167 1.48153
      vertex 0.0725114 0.223167 1.48153
    endloop
  endfacet
  facet normal 0 0 1
    outer loop
      vertex 1.43678e-017 0.234652 1.48153
      vertex -4.31034e-017 -0.234652 1.48153
      vertex 0.0725114 -0.223167 1.48153
    endloop
  endfacet
  facet normal -0 0 1
    outer loop
      vertex -0.0725114 0.223167 1.48153
      vertex -4.31034e-017 -0.234652 1.48153
      vertex 1.43678e-017 0.234652 1.48153
    endloop
  endfacet
  facet normal 0 0 1
    outer loop
      vertex -0.0725114 0.223167 1.48153
      vertex -0.0725114 -0.223167 1.48153
      vertex -4.31034e-017 -0.234652 1.48153
    endloop
  endfacet
  facet normal -0 0 1
    outer loop
      vertex -0.137925 0.189837 1.48153
      vertex -0.0725114 -0.223167 1.48153
      vertex -0.0725114 0.223167 1.48153
    endloop
  endfacet
  facet normal 0 0 1
    outer loop
      vertex -0.137925 0.189837 1.48153
      vertex -0.137925 -0.189837 1.48153
      vertex -0.0725114 -0.223167 1.48153
    endloop
  endfacet
  facet normal -0 0 1
    outer loop
      vertex -0.189837 0.137925 1.48153
      vertex -0.137925 -0.189837 1.48153
      vertex -0.137925 0.189837 1.48153
    endloop
  endfacet
  facet normal 0 0 1
    outer loop
      vertex -0.189837 0.137925 1.48153
      vertex -0.189837 -0.137925 1.48153
      vertex -0.137925 -0.189837 1.48153
    endloop
  endfacet
  facet normal -0 0 1
    outer loop
      vertex -0.223167 0.0725114 1.48153
      vertex -0.189837 -0.137925 1.48153
      vertex -0.189837 0.137925 1.48153
    endloop
  endfacet
  facet normal 0 0 1
    outer loop
      vertex -0.223167 0.0725114 1.48153
      vertex -0.223167 -0.0725114 1.48153
      vertex -0.189837 -0.137925 1.48153
    endloop
  endfacet
  facet normal 0 -0 1
    outer loop
      vertex -0.223167 -0.0725114 1.48153
      vertex -0.223167 0.0725114 1.48153
      vertex -0.234652 2.87356e-017 1.48153
    endloop
  endfacet
  facet normal 0 0 -1
    outer loop
      vertex 0.223167 -0.0725114 -1.48153
      vertex 0.223167 0.0725114 -1.48153
      vertex 0.234652 0 -1.48153
    endloop
  endfacet
  facet normal 0 0 -1
    outer loop
      vertex 0.189837 -0.137925 -1.48153
      vertex 0.223167 0.0725114 -1.48153
      vertex 0.223167 -0.0725114 -1.48153
    endloop
  endfacet
  facet normal 0 0 -1
    outer loop
      vertex 0.189837 -0.137925 -1.48153
      vertex 0.189837 0.137925 -1.48153
      vertex 0.223167 0.0725114 -1.48153
    endloop
  endfacet
  facet normal 0 0 -1
    outer loop
      vertex 0.137925 -0.189837 -1.48153
      vertex 0.189837 0.137925 -1.48153
      vertex 0.189837 -0.137925 -1.48153
    endloop
  endfacet
  facet normal 0 0 -1
    outer loop
      vertex 0.137925 -0.189837 -1.48153
      vertex 0.137925 0.189837 -1.48153
      vertex 0.189837 0.137925 -1.48153
    endloop
  endfacet
  facet normal 0 0 -1
    outer loop
      vertex 0.0725114 -0.223167 -1.48153
      vertex 0.137925 0.189837 -1.48153
      vertex 0.137925 -0.189837 -1.48153
    endloop
  endfacet
  facet normal 0 0 -1
    outer loop
      vertex 0.0725114 -0.223167 -1.48153
      vertex 0.0725114 0.223167 -1.48153
      vertex 0.137925 0.189837 -1.48153
    endloop
  endfacet
  facet normal 0 0 -1
    outer loop
      vertex 0.0725114 -0.223167 -1.48153
      vertex 1.43678e-017 0.234652 -1.48153
      vertex 0.0725114 0.223167 -1.48153
    endloop
  endfacet
  facet normal 0 0 -1
    outer loop
      vertex -4.31034e-017 -0.234652 -1.48153
      vertex 1.43678e-017 0.234652 -1.48153
      vertex 0.0725114 -0.223167 -1.48153
    endloop
  endfacet
  facet normal 0 0 -1
    outer loop
      vertex -0.0725114 -0.223167 -1.48153
      vertex 1.43678e-017 0.234652 -1.48153
      vertex -4.31034e-017 -0.234652 -1.48153
    endloop
  endfacet
  facet normal 0 0 -1
    outer loop
      vertex -0.0725114 -0.223167 -1.48153
      vertex -0.0725114 0.223167 -1.48153
      vertex 1.43678e-017 0.234652 -1.48153
    endloop
  endfacet
  facet normal 0 0 -1
    outer loop
      vertex -0.137925 -0.189837 -1.48153
      vertex -0.0725114 0.223167 -1.48153
      vertex -0.0725114 -0.223167 -1.48153
    endloop
  endfacet
  facet normal 0 0 -1
    outer loop
      vertex -0.137925 -0.189837 -1.48153
      vertex -0.137925 0.189837 -1.48153
      vertex -0.0725114 0.223167 -1.48153
    endloop
  endfacet
  facet normal 0 0 -1
    outer loop
      vertex -0.189837 -0.137925 -1.48153
      vertex -0.137925 0.189837 -1.48153
      vertex -0.137925 -0.189837 -1.48153
    endloop
  endfacet
  facet normal 0 0 -1
    outer loop
      vertex -0.189837 -0.137925 -1.48153
      vertex -0.189837 0.137925 -1.48153
      vertex -0.137925 0.189837 -1.48153
    endloop
  endfacet
  facet normal 0 0 -1
    outer loop
      vertex -0.223167 -0.0725114 -1.48153
      vertex -0.189837 0.137925 -1.48153
      vertex -0.189837 -0.137925 -1.48153
    endloop
  endfacet
  facet normal 0 0 -1
    outer loop
      vertex -0.223167 -0.0725114 -1.48153
      vertex -0.223167 0.0725114 -1.48153
      vertex -0.189837 0.137925 -1.48153
    endloop
  endfacet
  facet normal 0 -0 -1
    outer loop
      vertex -0.223167 0.0725114 -1.48153
      vertex -0.223167 -0.0725114 -1.48153
      vertex -0.234652 2.87356e-017 -1.48153
    endloop
  endfacet
endsolid OpenSCAD_Model
