solid OpenSCAD_Model
  facet normal -1 0 0
    outer loop
      vertex 0 4 -1.25
      vertex 0 0 -1.25
      vertex 0 4 -1
    endloop
  endfacet
  facet normal -1 0 0
    outer loop
      vertex 0 5 -1
      vertex 0 4.9 -0.9
      vertex 0 5 0
    endloop
  endfacet
  facet normal -1 0 0
    outer loop
      vertex 0 5 -1
      vertex 0 4.1 -0.9
      vertex 0 4.9 -0.9
    endloop
  endfacet
  facet normal -1 -0 0
    outer loop
      vertex 0 4.1 -0.9
      vertex 0 4 -1
      vertex 0 4.1 0
    endloop
  endfacet
  facet normal -1 0 0
    outer loop
      vertex 0 4 -1
      vertex 0 4.1 -0.9
      vertex 0 5 -1
    endloop
  endfacet
  facet normal -1 0 0
    outer loop
      vertex 0 5 0
      vertex 0 15 1
      vertex 0 15 0
    endloop
  endfacet
  facet normal -1 0 0
    outer loop
      vertex 0 4.9 0
      vertex 0 5 0
      vertex 0 4.9 -0.9
    endloop
  endfacet
  facet normal -1 0 0
    outer loop
      vertex 0 0 1
      vertex 0 5 0
      vertex 0 4.9 0
    endloop
  endfacet
  facet normal -1 0 0
    outer loop
      vertex 0 0 1
      vertex 0 4.9 0
      vertex 0 4.1 0
    endloop
  endfacet
  facet normal -1 0 0
    outer loop
      vertex 0 0 -1.25
      vertex 0 4.1 0
      vertex 0 4 -1
    endloop
  endfacet
  facet normal -1 0 0
    outer loop
      vertex 0 5 0
      vertex 0 0 1
      vertex 0 15 1
    endloop
  endfacet
  facet normal -1 0 0
    outer loop
      vertex 0 0 1
      vertex 0 4.1 0
      vertex 0 0 -1.25
    endloop
  endfacet
  facet normal -0 0 1
    outer loop
      vertex 0 15 1
      vertex 1 0 1
      vertex 1 15 1
    endloop
  endfacet
  facet normal 0 0 1
    outer loop
      vertex 1 0 1
      vertex 0 15 1
      vertex 0 0 1
    endloop
  endfacet
  facet normal 1 0 0
    outer loop
      vertex 1 15 1
      vertex 1 5 0
      vertex 1 15 0
    endloop
  endfacet
  facet normal 1 0 0
    outer loop
      vertex 1 4.9 -0.9
      vertex 1 5 0
      vertex 1 4.9 0
    endloop
  endfacet
  facet normal 1 -0 0
    outer loop
      vertex 1 0 1
      vertex 1 5 0
      vertex 1 15 1
    endloop
  endfacet
  facet normal 1 0 0
    outer loop
      vertex 1 5 0
      vertex 1 0 1
      vertex 1 4.9 0
    endloop
  endfacet
  facet normal 1 0 0
    outer loop
      vertex 1 4.1 0
      vertex 1 4 -1
      vertex 1 4.1 -0.9
    endloop
  endfacet
  facet normal 1 0 0
    outer loop
      vertex 1 4.9 0
      vertex 1 0 1
      vertex 1 4.1 0
    endloop
  endfacet
  facet normal 1 0 0
    outer loop
      vertex 1 0 -1.25
      vertex 1 4.1 0
      vertex 1 0 1
    endloop
  endfacet
  facet normal 1 0 0
    outer loop
      vertex 1 4.1 0
      vertex 1 0 -1.25
      vertex 1 4 -1
    endloop
  endfacet
  facet normal 1 0 0
    outer loop
      vertex 1 4 -1
      vertex 1 0 -1.25
      vertex 1 4 -1.25
    endloop
  endfacet
  facet normal 1 0 0
    outer loop
      vertex 1 5 0
      vertex 1 4.9 -0.9
      vertex 1 5 -1
    endloop
  endfacet
  facet normal 1 -0 0
    outer loop
      vertex 1 4.1 -0.9
      vertex 1 5 -1
      vertex 1 4.9 -0.9
    endloop
  endfacet
  facet normal 1 0 0
    outer loop
      vertex 1 5 -1
      vertex 1 4.1 -0.9
      vertex 1 4 -1
    endloop
  endfacet
  facet normal 0 1 -0
    outer loop
      vertex 1 5 -1
      vertex 0 5 0
      vertex 1 5 0
    endloop
  endfacet
  facet normal 0 1 0
    outer loop
      vertex 0 5 0
      vertex 1 5 -1
      vertex 0 5 -1
    endloop
  endfacet
  facet normal 0 0 -1
    outer loop
      vertex 0 4 -1
      vertex 1 5 -1
      vertex 1 4 -1
    endloop
  endfacet
  facet normal -0 0 -1
    outer loop
      vertex 1 5 -1
      vertex 0 4 -1
      vertex 0 5 -1
    endloop
  endfacet
  facet normal 0 1 -0
    outer loop
      vertex 1 4 -1.25
      vertex 0 4 -1
      vertex 1 4 -1
    endloop
  endfacet
  facet normal 0 1 0
    outer loop
      vertex 0 4 -1
      vertex 1 4 -1.25
      vertex 0 4 -1.25
    endloop
  endfacet
  facet normal 0 0 -1
    outer loop
      vertex 0 4.1 0
      vertex 1 4.9 0
      vertex 1 4.1 0
    endloop
  endfacet
  facet normal -0 0 -1
    outer loop
      vertex 1 4.9 0
      vertex 0 4.1 0
      vertex 0 4.9 0
    endloop
  endfacet
  facet normal 0 0 -1
    outer loop
      vertex 0 5 0
      vertex 1 15 0
      vertex 1 5 0
    endloop
  endfacet
  facet normal -0 0 -1
    outer loop
      vertex 1 15 0
      vertex 0 5 0
      vertex 0 15 0
    endloop
  endfacet
  facet normal 0 -1 0
    outer loop
      vertex 0 4.9 -0.9
      vertex 1 4.9 0
      vertex 0 4.9 0
    endloop
  endfacet
  facet normal 0 -1 -0
    outer loop
      vertex 1 4.9 0
      vertex 0 4.9 -0.9
      vertex 1 4.9 -0.9
    endloop
  endfacet
  facet normal -0 0 1
    outer loop
      vertex 0 4.9 -0.9
      vertex 1 4.1 -0.9
      vertex 1 4.9 -0.9
    endloop
  endfacet
  facet normal 0 0 1
    outer loop
      vertex 1 4.1 -0.9
      vertex 0 4.9 -0.9
      vertex 0 4.1 -0.9
    endloop
  endfacet
  facet normal 0 1 -0
    outer loop
      vertex 1 4.1 -0.9
      vertex 0 4.1 0
      vertex 1 4.1 0
    endloop
  endfacet
  facet normal 0 1 0
    outer loop
      vertex 0 4.1 0
      vertex 1 4.1 -0.9
      vertex 0 4.1 -0.9
    endloop
  endfacet
  facet normal 0 1 -0
    outer loop
      vertex 1 15 0
      vertex 0 15 1
      vertex 1 15 1
    endloop
  endfacet
  facet normal 0 1 0
    outer loop
      vertex 0 15 1
      vertex 1 15 0
      vertex 0 15 0
    endloop
  endfacet
  facet normal 0 -1 0
    outer loop
      vertex 0 0 -1.25
      vertex 1 0 1
      vertex 0 0 1
    endloop
  endfacet
  facet normal 0 -1 -0
    outer loop
      vertex 1 0 1
      vertex 0 0 -1.25
      vertex 1 0 -1.25
    endloop
  endfacet
  facet normal 0 0 -1
    outer loop
      vertex 0 0 -1.25
      vertex 1 4 -1.25
      vertex 1 0 -1.25
    endloop
  endfacet
  facet normal -0 0 -1
    outer loop
      vertex 1 4 -1.25
      vertex 0 0 -1.25
      vertex 0 4 -1.25
    endloop
  endfacet
endsolid OpenSCAD_Model
