solid OpenSCAD_Model
  facet normal -1 0 0
    outer loop
      vertex 0 0 0
      vertex 0 3 1
      vertex 0 3 0
    endloop
  endfacet
  facet normal -1 -0 0
    outer loop
      vertex 0 3 1
      vertex 0 0 0
      vertex 0 0 1
    endloop
  endfacet
  facet normal -1 0 0
    outer loop
      vertex 0 4 0
      vertex 0 15 1
      vertex 0 15 0
    endloop
  endfacet
  facet normal -1 -0 0
    outer loop
      vertex 0 15 1
      vertex 0 4 0
      vertex 0 4 1
    endloop
  endfacet
  facet normal -0 0 1
    outer loop
      vertex -2 4 1
      vertex 0 3 1
      vertex 0 4 1
    endloop
  endfacet
  facet normal 0 0 1
    outer loop
      vertex 0 3 1
      vertex -2 4 1
      vertex -2 3 1
    endloop
  endfacet
  facet normal 0 0 1
    outer loop
      vertex 0 4 1
      vertex 1 4 1
      vertex 1 15 1
    endloop
  endfacet
  facet normal 0 0 1
    outer loop
      vertex 1 4 1
      vertex 0 4 1
      vertex 1 3 1
    endloop
  endfacet
  facet normal 0 0 1
    outer loop
      vertex 0 4 1
      vertex 1 15 1
      vertex 0 15 1
    endloop
  endfacet
  facet normal 0 0 1
    outer loop
      vertex 0 3 1
      vertex 1 3 1
      vertex 0 4 1
    endloop
  endfacet
  facet normal 0 0 1
    outer loop
      vertex 1 3 1
      vertex 0 3 1
      vertex 1 0 1
    endloop
  endfacet
  facet normal 0 0 1
    outer loop
      vertex 1 0 1
      vertex 0 3 1
      vertex 0 0 1
    endloop
  endfacet
  facet normal -0 0 1
    outer loop
      vertex 1 4 1
      vertex 3 3 1
      vertex 3 4 1
    endloop
  endfacet
  facet normal 0 0 1
    outer loop
      vertex 3 3 1
      vertex 1 4 1
      vertex 1 3 1
    endloop
  endfacet
  facet normal 1 -0 0
    outer loop
      vertex 1 0 1
      vertex 1 3 0
      vertex 1 3 1
    endloop
  endfacet
  facet normal 1 0 0
    outer loop
      vertex 1 3 0
      vertex 1 0 1
      vertex 1 0 0
    endloop
  endfacet
  facet normal 1 -0 0
    outer loop
      vertex 1 4 1
      vertex 1 15 0
      vertex 1 15 1
    endloop
  endfacet
  facet normal 1 0 0
    outer loop
      vertex 1 15 0
      vertex 1 4 1
      vertex 1 4 0
    endloop
  endfacet
  facet normal 0 1 -0
    outer loop
      vertex 1 15 0
      vertex 0 15 1
      vertex 1 15 1
    endloop
  endfacet
  facet normal 0 1 0
    outer loop
      vertex 0 15 1
      vertex 1 15 0
      vertex 0 15 0
    endloop
  endfacet
  facet normal 0 0 -1
    outer loop
      vertex -2 3 0
      vertex 0 4 0
      vertex 0 3 0
    endloop
  endfacet
  facet normal -0 0 -1
    outer loop
      vertex 0 4 0
      vertex -2 3 0
      vertex -2 4 0
    endloop
  endfacet
  facet normal 0 0 -1
    outer loop
      vertex 0 3 0
      vertex 1 3 0
      vertex 1 0 0
    endloop
  endfacet
  facet normal 0 0 -1
    outer loop
      vertex 1 3 0
      vertex 0 3 0
      vertex 1 4 0
    endloop
  endfacet
  facet normal 0 0 -1
    outer loop
      vertex 0 3 0
      vertex 1 0 0
      vertex 0 0 0
    endloop
  endfacet
  facet normal -0 0 -1
    outer loop
      vertex 1 4 0
      vertex 0 3 0
      vertex 0 4 0
    endloop
  endfacet
  facet normal 0 0 -1
    outer loop
      vertex 1 4 0
      vertex 0 4 0
      vertex 1 15 0
    endloop
  endfacet
  facet normal -0 0 -1
    outer loop
      vertex 1 15 0
      vertex 0 4 0
      vertex 0 15 0
    endloop
  endfacet
  facet normal 0 0 -1
    outer loop
      vertex 1 3 0
      vertex 3 4 0
      vertex 3 3 0
    endloop
  endfacet
  facet normal -0 0 -1
    outer loop
      vertex 3 4 0
      vertex 1 3 0
      vertex 1 4 0
    endloop
  endfacet
  facet normal 0 -1 0
    outer loop
      vertex 0 0 0
      vertex 1 0 1
      vertex 0 0 1
    endloop
  endfacet
  facet normal 0 -1 -0
    outer loop
      vertex 1 0 1
      vertex 0 0 0
      vertex 1 0 0
    endloop
  endfacet
  facet normal -1 0 0
    outer loop
      vertex -2 3 0
      vertex -2 4 1
      vertex -2 4 0
    endloop
  endfacet
  facet normal -1 -0 0
    outer loop
      vertex -2 4 1
      vertex -2 3 0
      vertex -2 3 1
    endloop
  endfacet
  facet normal 1 -0 0
    outer loop
      vertex 3 3 1
      vertex 3 4 0
      vertex 3 4 1
    endloop
  endfacet
  facet normal 1 0 0
    outer loop
      vertex 3 4 0
      vertex 3 3 1
      vertex 3 3 0
    endloop
  endfacet
  facet normal 0 1 -0
    outer loop
      vertex 3 4 0
      vertex 1 4 1
      vertex 3 4 1
    endloop
  endfacet
  facet normal 0 1 0
    outer loop
      vertex 1 4 1
      vertex 3 4 0
      vertex 1 4 0
    endloop
  endfacet
  facet normal 0 1 -0
    outer loop
      vertex 0 4 0
      vertex -2 4 1
      vertex 0 4 1
    endloop
  endfacet
  facet normal 0 1 0
    outer loop
      vertex -2 4 1
      vertex 0 4 0
      vertex -2 4 0
    endloop
  endfacet
  facet normal 0 -1 0
    outer loop
      vertex -2 3 0
      vertex 0 3 1
      vertex -2 3 1
    endloop
  endfacet
  facet normal 0 -1 -0
    outer loop
      vertex 0 3 1
      vertex -2 3 0
      vertex 0 3 0
    endloop
  endfacet
  facet normal 0 -1 0
    outer loop
      vertex 1 3 0
      vertex 3 3 1
      vertex 1 3 1
    endloop
  endfacet
  facet normal 0 -1 -0
    outer loop
      vertex 3 3 1
      vertex 1 3 0
      vertex 3 3 0
    endloop
  endfacet
endsolid OpenSCAD_Model
