solid OpenSCAD_Model
  facet normal -1 0 0
    outer loop
      vertex 0 0 0
      vertex 0 10 5
      vertex 0 10 0
    endloop
  endfacet
  facet normal -1 -0 0
    outer loop
      vertex 0 10 5
      vertex 0 0 0
      vertex 0 0 5
    endloop
  endfacet
  facet normal 0 0 1
    outer loop
      vertex 10 10 5
      vertex 9.75 9.75 5
      vertex 10 0 5
    endloop
  endfacet
  facet normal 0 0 1
    outer loop
      vertex 10 10 5
      vertex 0.25 9.75 5
      vertex 9.75 9.75 5
    endloop
  endfacet
  facet normal 0 0 1
    outer loop
      vertex 0.25 9.75 5
      vertex 0 10 5
      vertex 0.25 0.25 5
    endloop
  endfacet
  facet normal -0 0 1
    outer loop
      vertex 0 10 5
      vertex 0.25 9.75 5
      vertex 10 10 5
    endloop
  endfacet
  facet normal -0 0 1
    outer loop
      vertex 9.75 0.25 5
      vertex 10 0 5
      vertex 9.75 9.75 5
    endloop
  endfacet
  facet normal -0 0 1
    outer loop
      vertex 0.25 0.25 5
      vertex 10 0 5
      vertex 9.75 0.25 5
    endloop
  endfacet
  facet normal 0 0 1
    outer loop
      vertex 0.25 0.25 5
      vertex 0 0 5
      vertex 10 0 5
    endloop
  endfacet
  facet normal 0 0 1
    outer loop
      vertex 0 0 5
      vertex 0.25 0.25 5
      vertex 0 10 5
    endloop
  endfacet
  facet normal 1 -0 0
    outer loop
      vertex 10 0 5
      vertex 10 10 0
      vertex 10 10 5
    endloop
  endfacet
  facet normal 1 0 0
    outer loop
      vertex 10 10 0
      vertex 10 0 5
      vertex 10 0 0
    endloop
  endfacet
  facet normal 0 1 0
    outer loop
      vertex 9.75 0.25 5
      vertex 6 0.25 3
      vertex 0.25 0.25 5
    endloop
  endfacet
  facet normal 0 1 -0
    outer loop
      vertex 9.75 0.25 0.0999994
      vertex 6 0.25 3
      vertex 9.75 0.25 5
    endloop
  endfacet
  facet normal 0 1 0
    outer loop
      vertex 6 0.25 3
      vertex 9.75 0.25 0.0999994
      vertex 6 0.25 0.0999994
    endloop
  endfacet
  facet normal 0 1 -0
    outer loop
      vertex 4 0.25 3
      vertex 0.25 0.25 5
      vertex 6 0.25 3
    endloop
  endfacet
  facet normal 0 1 0
    outer loop
      vertex 0.25 0.25 0.0999994
      vertex 4 0.25 3
      vertex 4 0.25 0.0999994
    endloop
  endfacet
  facet normal 0 1 0
    outer loop
      vertex 4 0.25 3
      vertex 0.25 0.25 0.0999994
      vertex 0.25 0.25 5
    endloop
  endfacet
  facet normal 0 0 -1
    outer loop
      vertex 0 0 0
      vertex 10 10 0
      vertex 10 0 0
    endloop
  endfacet
  facet normal -0 0 -1
    outer loop
      vertex 10 10 0
      vertex 0 0 0
      vertex 0 10 0
    endloop
  endfacet
  facet normal 0 -1 0
    outer loop
      vertex 0 0 5
      vertex 4 0 3
      vertex 10 0 5
    endloop
  endfacet
  facet normal 0 -1 0
    outer loop
      vertex 0 0 0
      vertex 4 0 3
      vertex 0 0 5
    endloop
  endfacet
  facet normal 0 -1 -0
    outer loop
      vertex 4 0 0.0999994
      vertex 0 0 0
      vertex 6 0 0.0999994
    endloop
  endfacet
  facet normal 0 -1 -0
    outer loop
      vertex 4 0 3
      vertex 0 0 0
      vertex 4 0 0.0999994
    endloop
  endfacet
  facet normal 0 -1 0
    outer loop
      vertex 6 0 3
      vertex 10 0 5
      vertex 4 0 3
    endloop
  endfacet
  facet normal 0 -1 0
    outer loop
      vertex 10 0 0
      vertex 6 0 3
      vertex 6 0 0.0999994
    endloop
  endfacet
  facet normal 0 -1 0
    outer loop
      vertex 6 0 3
      vertex 10 0 0
      vertex 10 0 5
    endloop
  endfacet
  facet normal 0 -1 0
    outer loop
      vertex 10 0 0
      vertex 6 0 0.0999994
      vertex 0 0 0
    endloop
  endfacet
  facet normal 1 -0 0
    outer loop
      vertex 4 0 3
      vertex 4 0.25 0.0999994
      vertex 4 0.25 3
    endloop
  endfacet
  facet normal 1 0 0
    outer loop
      vertex 4 0.25 0.0999994
      vertex 4 0 3
      vertex 4 0 0.0999994
    endloop
  endfacet
  facet normal 0 0 -1
    outer loop
      vertex 4 0 3
      vertex 6 0.25 3
      vertex 6 0 3
    endloop
  endfacet
  facet normal -0 0 -1
    outer loop
      vertex 6 0.25 3
      vertex 4 0 3
      vertex 4 0.25 3
    endloop
  endfacet
  facet normal -1 0 0
    outer loop
      vertex 6 0 0.0999994
      vertex 6 0.25 3
      vertex 6 0.25 0.0999994
    endloop
  endfacet
  facet normal -1 -0 0
    outer loop
      vertex 6 0.25 3
      vertex 6 0 0.0999994
      vertex 6 0 3
    endloop
  endfacet
  facet normal 0 1 0
    outer loop
      vertex 10 10 5
      vertex 6 10 3
      vertex 0 10 5
    endloop
  endfacet
  facet normal 0 1 -0
    outer loop
      vertex 10 10 0
      vertex 6 10 3
      vertex 10 10 5
    endloop
  endfacet
  facet normal 0 1 0
    outer loop
      vertex 6 10 0.0999994
      vertex 10 10 0
      vertex 4 10 0.0999994
    endloop
  endfacet
  facet normal 0 1 0
    outer loop
      vertex 6 10 3
      vertex 10 10 0
      vertex 6 10 0.0999994
    endloop
  endfacet
  facet normal 0 1 -0
    outer loop
      vertex 4 10 3
      vertex 0 10 5
      vertex 6 10 3
    endloop
  endfacet
  facet normal 0 1 0
    outer loop
      vertex 0 10 0
      vertex 4 10 3
      vertex 4 10 0.0999994
    endloop
  endfacet
  facet normal 0 1 0
    outer loop
      vertex 4 10 3
      vertex 0 10 0
      vertex 0 10 5
    endloop
  endfacet
  facet normal 0 1 0
    outer loop
      vertex 0 10 0
      vertex 4 10 0.0999994
      vertex 10 10 0
    endloop
  endfacet
  facet normal 0 -1 0
    outer loop
      vertex 0.25 9.75 5
      vertex 4 9.75 3
      vertex 9.75 9.75 5
    endloop
  endfacet
  facet normal 0 -1 0
    outer loop
      vertex 0.25 9.75 0.0999994
      vertex 4 9.75 3
      vertex 0.25 9.75 5
    endloop
  endfacet
  facet normal 0 -1 -0
    outer loop
      vertex 4 9.75 3
      vertex 0.25 9.75 0.0999994
      vertex 4 9.75 0.0999994
    endloop
  endfacet
  facet normal 0 -1 0
    outer loop
      vertex 6 9.75 3
      vertex 9.75 9.75 5
      vertex 4 9.75 3
    endloop
  endfacet
  facet normal 0 -1 0
    outer loop
      vertex 9.75 9.75 0.0999994
      vertex 6 9.75 3
      vertex 6 9.75 0.0999994
    endloop
  endfacet
  facet normal 0 -1 0
    outer loop
      vertex 6 9.75 3
      vertex 9.75 9.75 0.0999994
      vertex 9.75 9.75 5
    endloop
  endfacet
  facet normal 1 -0 0
    outer loop
      vertex 4 9.75 3
      vertex 4 10 0.0999994
      vertex 4 10 3
    endloop
  endfacet
  facet normal 1 0 0
    outer loop
      vertex 4 10 0.0999994
      vertex 4 9.75 3
      vertex 4 9.75 0.0999994
    endloop
  endfacet
  facet normal 0 0 -1
    outer loop
      vertex 4 9.75 3
      vertex 6 10 3
      vertex 6 9.75 3
    endloop
  endfacet
  facet normal -0 0 -1
    outer loop
      vertex 6 10 3
      vertex 4 9.75 3
      vertex 4 10 3
    endloop
  endfacet
  facet normal -1 0 0
    outer loop
      vertex 6 9.75 0.0999994
      vertex 6 10 3
      vertex 6 10 0.0999994
    endloop
  endfacet
  facet normal -1 -0 0
    outer loop
      vertex 6 10 3
      vertex 6 9.75 0.0999994
      vertex 6 9.75 3
    endloop
  endfacet
  facet normal 1 -0 0
    outer loop
      vertex 0.25 0.25 5
      vertex 0.25 9.75 0.0999994
      vertex 0.25 9.75 5
    endloop
  endfacet
  facet normal 1 0 0
    outer loop
      vertex 0.25 9.75 0.0999994
      vertex 0.25 0.25 5
      vertex 0.25 0.25 0.0999994
    endloop
  endfacet
  facet normal -1 0 0
    outer loop
      vertex 9.75 0.25 0.0999994
      vertex 9.75 9.75 5
      vertex 9.75 9.75 0.0999994
    endloop
  endfacet
  facet normal -1 -0 0
    outer loop
      vertex 9.75 9.75 5
      vertex 9.75 0.25 0.0999994
      vertex 9.75 0.25 5
    endloop
  endfacet
  facet normal -0 0 1
    outer loop
      vertex 0.25 9.75 0.0999994
      vertex 4 0.25 0.0999994
      vertex 4 9.75 0.0999994
    endloop
  endfacet
  facet normal 0 0 1
    outer loop
      vertex 4 0.25 0.0999994
      vertex 0.25 9.75 0.0999994
      vertex 0.25 0.25 0.0999994
    endloop
  endfacet
  facet normal 0 0 1
    outer loop
      vertex 4 9.75 0.0999994
      vertex 6 9.75 0.0999994
      vertex 6 10 0.0999994
    endloop
  endfacet
  facet normal 0 0 1
    outer loop
      vertex 6 9.75 0.0999994
      vertex 4 9.75 0.0999994
      vertex 6 0.25 0.0999994
    endloop
  endfacet
  facet normal 0 0 1
    outer loop
      vertex 4 9.75 0.0999994
      vertex 6 10 0.0999994
      vertex 4 10 0.0999994
    endloop
  endfacet
  facet normal 0 0 1
    outer loop
      vertex 4 0.25 0.0999994
      vertex 6 0.25 0.0999994
      vertex 4 9.75 0.0999994
    endloop
  endfacet
  facet normal 0 0 1
    outer loop
      vertex 6 0.25 0.0999994
      vertex 4 0.25 0.0999994
      vertex 6 0 0.0999994
    endloop
  endfacet
  facet normal 0 0 1
    outer loop
      vertex 6 0 0.0999994
      vertex 4 0.25 0.0999994
      vertex 4 0 0.0999994
    endloop
  endfacet
  facet normal -0 0 1
    outer loop
      vertex 6 9.75 0.0999994
      vertex 9.75 0.25 0.0999994
      vertex 9.75 9.75 0.0999994
    endloop
  endfacet
  facet normal 0 0 1
    outer loop
      vertex 9.75 0.25 0.0999994
      vertex 6 9.75 0.0999994
      vertex 6 0.25 0.0999994
    endloop
  endfacet
endsolid OpenSCAD_Model
