solid OpenSCAD_Model
  facet normal -1 0 0
    outer loop
      vertex 0 7.5 0
      vertex 0 10 5
      vertex 0 10 0
    endloop
  endfacet
  facet normal -1 0 0
    outer loop
      vertex 0 0 5
      vertex 0 7.5 0
      vertex 0 0 0
    endloop
  endfacet
  facet normal -1 0 0
    outer loop
      vertex 0 7.5 0
      vertex 0 0 5
      vertex 0 10 5
    endloop
  endfacet
  facet normal 0 0 1
    outer loop
      vertex 10 10 5
      vertex 9.75 9.75 5
      vertex 10 0 5
    endloop
  endfacet
  facet normal 0 0 1
    outer loop
      vertex 10 10 5
      vertex 0.25 9.75 5
      vertex 9.75 9.75 5
    endloop
  endfacet
  facet normal 0 0 1
    outer loop
      vertex 0.25 9.75 5
      vertex 0 10 5
      vertex 0.25 0.25 5
    endloop
  endfacet
  facet normal -0 0 1
    outer loop
      vertex 0 10 5
      vertex 0.25 9.75 5
      vertex 10 10 5
    endloop
  endfacet
  facet normal -0 0 1
    outer loop
      vertex 9.75 0.25 5
      vertex 10 0 5
      vertex 9.75 9.75 5
    endloop
  endfacet
  facet normal -0 0 1
    outer loop
      vertex 0.25 0.25 5
      vertex 10 0 5
      vertex 9.75 0.25 5
    endloop
  endfacet
  facet normal 0 0 1
    outer loop
      vertex 0.25 0.25 5
      vertex 0 0 5
      vertex 10 0 5
    endloop
  endfacet
  facet normal 0 0 1
    outer loop
      vertex 0 0 5
      vertex 0.25 0.25 5
      vertex 0 10 5
    endloop
  endfacet
  facet normal 1 -0 0
    outer loop
      vertex 10 0 5
      vertex 10 10 0
      vertex 10 10 5
    endloop
  endfacet
  facet normal 1 0 0
    outer loop
      vertex 10 10 0
      vertex 10 0 5
      vertex 10 0 0
    endloop
  endfacet
  facet normal 0 0 -1
    outer loop
      vertex 10 0 0
      vertex 9.75 7.5 0
      vertex 10 10 0
    endloop
  endfacet
  facet normal 0 0 -1
    outer loop
      vertex 10 0 0
      vertex 0.25 7.5 0
      vertex 9.75 7.5 0
    endloop
  endfacet
  facet normal 0 0 -1
    outer loop
      vertex 0.25 7.5 0
      vertex 0.223605 7.5 0
      vertex 0.25 9.75 0
    endloop
  endfacet
  facet normal 0 0 -1
    outer loop
      vertex 0 0 0
      vertex 0.25 7.5 0
      vertex 10 0 0
    endloop
  endfacet
  facet normal -0 0 -1
    outer loop
      vertex 0.25 7.5 0
      vertex 0 0 0
      vertex 0.223605 7.5 0
    endloop
  endfacet
  facet normal -0 0 -1
    outer loop
      vertex 0.223605 7.5 0
      vertex 0 0 0
      vertex 0 7.5 0
    endloop
  endfacet
  facet normal 0 0 -1
    outer loop
      vertex 9.75 9.75 0
      vertex 10 10 0
      vertex 9.75 7.5 0
    endloop
  endfacet
  facet normal 0 0 -1
    outer loop
      vertex 0.223605 10 0
      vertex 9.75 9.75 0
      vertex 0.25 9.75 0
    endloop
  endfacet
  facet normal 0 0 -1
    outer loop
      vertex 9.75 9.75 0
      vertex 0.223605 10 0
      vertex 10 10 0
    endloop
  endfacet
  facet normal 0 0 -1
    outer loop
      vertex 0.223605 10 0
      vertex 0.25 9.75 0
      vertex 0.223605 7.5 0
    endloop
  endfacet
  facet normal 0 -1 0
    outer loop
      vertex 0 0 5
      vertex 4 0 3.5
      vertex 10 0 5
    endloop
  endfacet
  facet normal 0 -1 0
    outer loop
      vertex 0 0 5
      vertex 4 0 1.5
      vertex 4 0 3.5
    endloop
  endfacet
  facet normal 0 -1 -0
    outer loop
      vertex 4 0 1.5
      vertex 0 0 0
      vertex 6 0 1.5
    endloop
  endfacet
  facet normal 0 -1 0
    outer loop
      vertex 0 0 0
      vertex 4 0 1.5
      vertex 0 0 5
    endloop
  endfacet
  facet normal 0 -1 0
    outer loop
      vertex 6 0 3.5
      vertex 10 0 5
      vertex 4 0 3.5
    endloop
  endfacet
  facet normal 0 -1 0
    outer loop
      vertex 6 0 1.5
      vertex 10 0 5
      vertex 6 0 3.5
    endloop
  endfacet
  facet normal 0 -1 0
    outer loop
      vertex 6 0 1.5
      vertex 10 0 0
      vertex 10 0 5
    endloop
  endfacet
  facet normal 0 -1 0
    outer loop
      vertex 10 0 0
      vertex 6 0 1.5
      vertex 0 0 0
    endloop
  endfacet
  facet normal 0 1 0
    outer loop
      vertex 9.75 0.25 5
      vertex 6 0.25 3.5
      vertex 0.25 0.25 5
    endloop
  endfacet
  facet normal 0 1 -0
    outer loop
      vertex 9.75 0.25 0.0999994
      vertex 6 0.25 3.5
      vertex 9.75 0.25 5
    endloop
  endfacet
  facet normal 0 1 0
    outer loop
      vertex 6 0.25 1.5
      vertex 9.75 0.25 0.0999994
      vertex 4 0.25 1.5
    endloop
  endfacet
  facet normal 0 1 0
    outer loop
      vertex 6 0.25 3.5
      vertex 9.75 0.25 0.0999994
      vertex 6 0.25 1.5
    endloop
  endfacet
  facet normal 0 1 -0
    outer loop
      vertex 4 0.25 3.5
      vertex 0.25 0.25 5
      vertex 6 0.25 3.5
    endloop
  endfacet
  facet normal 0 1 0
    outer loop
      vertex 0.25 0.25 0.0999994
      vertex 4 0.25 3.5
      vertex 4 0.25 1.5
    endloop
  endfacet
  facet normal 0 1 0
    outer loop
      vertex 4 0.25 3.5
      vertex 0.25 0.25 0.0999994
      vertex 0.25 0.25 5
    endloop
  endfacet
  facet normal 0 1 0
    outer loop
      vertex 0.25 0.25 0.0999994
      vertex 4 0.25 1.5
      vertex 9.75 0.25 0.0999994
    endloop
  endfacet
  facet normal 1 -0 0
    outer loop
      vertex 4 0 3.5
      vertex 4 0.25 1.5
      vertex 4 0.25 3.5
    endloop
  endfacet
  facet normal 1 0 0
    outer loop
      vertex 4 0.25 1.5
      vertex 4 0 3.5
      vertex 4 0 1.5
    endloop
  endfacet
  facet normal 0 0 -1
    outer loop
      vertex 4 0 3.5
      vertex 6 0.25 3.5
      vertex 6 0 3.5
    endloop
  endfacet
  facet normal -0 0 -1
    outer loop
      vertex 6 0.25 3.5
      vertex 4 0 3.5
      vertex 4 0.25 3.5
    endloop
  endfacet
  facet normal -1 0 0
    outer loop
      vertex 6 0 1.5
      vertex 6 0.25 3.5
      vertex 6 0.25 1.5
    endloop
  endfacet
  facet normal -1 -0 0
    outer loop
      vertex 6 0.25 3.5
      vertex 6 0 1.5
      vertex 6 0 3.5
    endloop
  endfacet
  facet normal -0 0 1
    outer loop
      vertex 4 0.25 1.5
      vertex 6 0 1.5
      vertex 6 0.25 1.5
    endloop
  endfacet
  facet normal 0 0 1
    outer loop
      vertex 6 0 1.5
      vertex 4 0.25 1.5
      vertex 4 0 1.5
    endloop
  endfacet
  facet normal 0 -1 0
    outer loop
      vertex 0.25 9.75 5
      vertex 4 9.75 3.5
      vertex 9.75 9.75 5
    endloop
  endfacet
  facet normal 0 -1 0
    outer loop
      vertex 0.25 9.75 5
      vertex 4 9.75 1.5
      vertex 4 9.75 3.5
    endloop
  endfacet
  facet normal 0 -1 -0
    outer loop
      vertex 4 9.75 1.5
      vertex 0.25 9.75 0
      vertex 6 9.75 1.5
    endloop
  endfacet
  facet normal 0 -1 0
    outer loop
      vertex 0.25 9.75 0
      vertex 4 9.75 1.5
      vertex 0.25 9.75 5
    endloop
  endfacet
  facet normal 0 -1 0
    outer loop
      vertex 6 9.75 3.5
      vertex 9.75 9.75 5
      vertex 4 9.75 3.5
    endloop
  endfacet
  facet normal 0 -1 0
    outer loop
      vertex 6 9.75 1.5
      vertex 9.75 9.75 5
      vertex 6 9.75 3.5
    endloop
  endfacet
  facet normal 0 -1 0
    outer loop
      vertex 6 9.75 1.5
      vertex 9.75 9.75 0
      vertex 9.75 9.75 5
    endloop
  endfacet
  facet normal 0 -1 0
    outer loop
      vertex 9.75 9.75 0
      vertex 6 9.75 1.5
      vertex 0.25 9.75 0
    endloop
  endfacet
  facet normal 0 1 0
    outer loop
      vertex 10 10 5
      vertex 6 10 3.5
      vertex 0 10 5
    endloop
  endfacet
  facet normal 0 1 0
    outer loop
      vertex 10 10 5
      vertex 6 10 1.5
      vertex 6 10 3.5
    endloop
  endfacet
  facet normal 0 1 0
    outer loop
      vertex 0.223605 10 0
      vertex 6 10 1.5
      vertex 10 10 0
    endloop
  endfacet
  facet normal 0 1 -0
    outer loop
      vertex 10 10 0
      vertex 6 10 1.5
      vertex 10 10 5
    endloop
  endfacet
  facet normal 0 1 -0
    outer loop
      vertex 4 10 3.5
      vertex 0 10 5
      vertex 6 10 3.5
    endloop
  endfacet
  facet normal 0 1 0
    outer loop
      vertex 0.223605 10 0
      vertex 4 10 3.5
      vertex 4 10 1.5
    endloop
  endfacet
  facet normal 0 1 0
    outer loop
      vertex 6 10 1.5
      vertex 0.223605 10 0
      vertex 4 10 1.5
    endloop
  endfacet
  facet normal 0 1 0
    outer loop
      vertex 4 10 3.5
      vertex 0.223605 10 0
      vertex 0 10 5
    endloop
  endfacet
  facet normal 0 1 0
    outer loop
      vertex 0.223605 10 0
      vertex 0 10 0
      vertex 0 10 5
    endloop
  endfacet
  facet normal 0 1 -0
    outer loop
      vertex 8.94427 10 -4.47214
      vertex 0.223605 10 0
      vertex 8.98899 10 -4.38269
    endloop
  endfacet
  facet normal 0 1 0
    outer loop
      vertex 0.223605 10 0
      vertex 8.94427 10 -4.47214
      vertex 0 10 0
    endloop
  endfacet
  facet normal 1 -0 0
    outer loop
      vertex 4 9.75 3.5
      vertex 4 10 1.5
      vertex 4 10 3.5
    endloop
  endfacet
  facet normal 1 0 0
    outer loop
      vertex 4 10 1.5
      vertex 4 9.75 3.5
      vertex 4 9.75 1.5
    endloop
  endfacet
  facet normal 0 0 -1
    outer loop
      vertex 4 9.75 3.5
      vertex 6 10 3.5
      vertex 6 9.75 3.5
    endloop
  endfacet
  facet normal -0 0 -1
    outer loop
      vertex 6 10 3.5
      vertex 4 9.75 3.5
      vertex 4 10 3.5
    endloop
  endfacet
  facet normal -1 0 0
    outer loop
      vertex 6 9.75 1.5
      vertex 6 10 3.5
      vertex 6 10 1.5
    endloop
  endfacet
  facet normal -1 -0 0
    outer loop
      vertex 6 10 3.5
      vertex 6 9.75 1.5
      vertex 6 9.75 3.5
    endloop
  endfacet
  facet normal -0 0 1
    outer loop
      vertex 4 10 1.5
      vertex 6 9.75 1.5
      vertex 6 10 1.5
    endloop
  endfacet
  facet normal 0 0 1
    outer loop
      vertex 6 9.75 1.5
      vertex 4 10 1.5
      vertex 4 9.75 1.5
    endloop
  endfacet
  facet normal 1 0 0
    outer loop
      vertex 0.25 9.75 5
      vertex 0.25 7.5 0.0999994
      vertex 0.25 9.75 0
    endloop
  endfacet
  facet normal 1 -0 0
    outer loop
      vertex 0.25 0.25 5
      vertex 0.25 7.5 0.0999994
      vertex 0.25 9.75 5
    endloop
  endfacet
  facet normal 1 0 0
    outer loop
      vertex 0.25 7.5 0.0999994
      vertex 0.25 0.25 5
      vertex 0.25 0.25 0.0999994
    endloop
  endfacet
  facet normal 1 0 0
    outer loop
      vertex 0.25 9.75 0
      vertex 0.25 7.5 0.0999994
      vertex 0.25 7.5 0
    endloop
  endfacet
  facet normal -1 0 0
    outer loop
      vertex 9.75 7.5 0.0999994
      vertex 9.75 9.75 0
      vertex 9.75 7.5 0
    endloop
  endfacet
  facet normal -1 0 0
    outer loop
      vertex 9.75 9.75 0
      vertex 9.75 7.5 0.0999994
      vertex 9.75 9.75 5
    endloop
  endfacet
  facet normal -1 0 0
    outer loop
      vertex 9.75 0.25 5
      vertex 9.75 7.5 0.0999994
      vertex 9.75 0.25 0.0999994
    endloop
  endfacet
  facet normal -1 0 0
    outer loop
      vertex 9.75 7.5 0.0999994
      vertex 9.75 0.25 5
      vertex 9.75 9.75 5
    endloop
  endfacet
  facet normal -0 0 1
    outer loop
      vertex 0.25 7.5 0.0999994
      vertex 9.75 0.25 0.0999994
      vertex 9.75 7.5 0.0999994
    endloop
  endfacet
  facet normal 0 0 1
    outer loop
      vertex 9.75 0.25 0.0999994
      vertex 0.25 7.5 0.0999994
      vertex 0.25 0.25 0.0999994
    endloop
  endfacet
  facet normal 0 -1 0
    outer loop
      vertex 8.94427 7.5 -4.47214
      vertex 0.223605 7.5 0
      vertex 0 7.5 0
    endloop
  endfacet
  facet normal 0 -1 0
    outer loop
      vertex 0.223605 7.5 0
      vertex 8.94427 7.5 -4.47214
      vertex 8.98899 7.5 -4.38269
    endloop
  endfacet
  facet normal 0 1 -0
    outer loop
      vertex 9.75 7.5 0
      vertex 0.25 7.5 0.0999994
      vertex 9.75 7.5 0.0999994
    endloop
  endfacet
  facet normal 0 1 0
    outer loop
      vertex 0.25 7.5 0.0999994
      vertex 9.75 7.5 0
      vertex 0.25 7.5 0
    endloop
  endfacet
  facet normal 0.447213 0 0.894427
    outer loop
      vertex 0.223605 10 0
      vertex 8.98899 7.5 -4.38269
      vertex 8.98899 10 -4.38269
    endloop
  endfacet
  facet normal 0.447213 0 0.894427
    outer loop
      vertex 8.98899 7.5 -4.38269
      vertex 0.223605 10 0
      vertex 0.223605 7.5 0
    endloop
  endfacet
  facet normal 0.894427 0 -0.447214
    outer loop
      vertex 8.98899 7.5 -4.38269
      vertex 8.94427 10 -4.47214
      vertex 8.98899 10 -4.38269
    endloop
  endfacet
  facet normal 0.894427 0 -0.447214
    outer loop
      vertex 8.94427 10 -4.47214
      vertex 8.98899 7.5 -4.38269
      vertex 8.94427 7.5 -4.47214
    endloop
  endfacet
  facet normal -0.447214 0 -0.894427
    outer loop
      vertex 0 7.5 0
      vertex 8.94427 10 -4.47214
      vertex 8.94427 7.5 -4.47214
    endloop
  endfacet
  facet normal -0.447214 0 -0.894427
    outer loop
      vertex 8.94427 10 -4.47214
      vertex 0 7.5 0
      vertex 0 10 0
    endloop
  endfacet
endsolid OpenSCAD_Model
